<?xml version="1.0" encoding="UTF-8"?>
<!DOCTYPE svg PUBLIC "-//W3C//DTD SVG 1.1//EN" "http://www.w3.org/Graphics/SVG/1.1/DTD/svg11.dtd">
<!-- Creator: CorelDRAW 2020 (64 Bit) -->
<svg xmlns="http://www.w3.org/2000/svg" xml:space="preserve" width="116px" height="114px" version="1.1" style="shape-rendering:geometricPrecision; text-rendering:geometricPrecision; image-rendering:optimizeQuality; fill-rule:evenodd; clip-rule:evenodd"
viewBox="0 0 0.25 0.25"
 xmlns:xlink="http://www.w3.org/1999/xlink"
 xmlns:xodm="http://www.corel.com/coreldraw/odm/2003">
 <defs>
  <style type="text/css">
   <![CDATA[
    .fil0 {fill:#999999;fill-rule:nonzero}
   ]]>
  </style>
 </defs>
 <g id="Camada_x0020_1">
  <metadata id="CorelCorpID_0Corel-Layer"/>
  <path class="fil0" d="M0.03 0.23l0 0 0 0c0,0 0,-0.01 0,-0.01 0,0 0,0 0,-0.01 0,-0.01 0.01,-0.02 0.03,-0.03 0.03,-0.02 0.07,-0.02 0.1,0 0.02,0.01 0.03,0.02 0.03,0.03 0,0.01 0,0.01 0,0.01 0,0 0,0.01 0,0.01l0 0 0 0 -0.16 0zm0.05 -0.1c-0.01,-0.01 -0.02,-0.02 -0.02,-0.03 0,-0.02 0.01,-0.03 0.02,-0.04 0.02,-0.02 0.05,-0.02 0.06,0 0.01,0.01 0.02,0.02 0.02,0.04 0,0.01 -0.01,0.02 -0.02,0.03 -0.01,0.02 -0.04,0.02 -0.06,0zm-0.02 -0.08c-0.01,0.01 -0.02,0.03 -0.02,0.05 0,0.02 0.02,0.04 0.02,0.05 0,0 0,0 0,0.01l0 0 0 0 0 0 0 0 0 0 0 0 0 0 0 0c-0.01,0 -0.01,0 -0.02,0 -0.02,0.02 -0.03,0.04 -0.04,0.07l0 0c0,0 0,0 0,0 0,0.01 0.01,0.02 0.02,0.02l0 0 0.18 0 0 0c0.01,0 0.02,-0.01 0.02,-0.02 0,0 0,0 0,0l0 0c-0.01,-0.03 -0.02,-0.05 -0.04,-0.07 -0.01,0 -0.01,0 -0.02,0l0 0 0 0 0 0 0 0 0 0 0 0 0 0 0 0c0,-0.01 0,-0.01 0,-0.01 0,-0.01 0.02,-0.03 0.02,-0.05 0,-0.02 -0.01,-0.04 -0.02,-0.05 -0.03,-0.03 -0.07,-0.03 -0.1,0z"/>
  <path class="fil0" d="M0.18 0.05c0,0 -0.01,-0.01 -0.01,-0.01 0,0 0.01,-0.01 0.01,-0.01l0.02 0 0 -0.02c0,-0.01 0.01,-0.01 0.01,-0.01 0.01,0 0.01,0 0.01,0.01l0 0.02 0.02 0c0.01,0 0.01,0.01 0.01,0.01 0,0 0,0.01 -0.01,0.01l-0.02 0 0 0.02c0,0.01 0,0.01 -0.01,0.01 0,0 -0.01,0 -0.01,-0.01l0 -0.02 -0.02 0z"/>
 </g>
</svg>
