<?xml version="1.0" encoding="UTF-8"?>
<!DOCTYPE svg PUBLIC "-//W3C//DTD SVG 1.1//EN" "http://www.w3.org/Graphics/SVG/1.1/DTD/svg11.dtd">
<!-- Creator: CorelDRAW 2020 (64 Bit) -->
<svg xmlns="http://www.w3.org/2000/svg" xml:space="preserve" width="898px" height="320px" version="1.1" style="shape-rendering:geometricPrecision; text-rendering:geometricPrecision; image-rendering:optimizeQuality; fill-rule:evenodd; clip-rule:evenodd"
viewBox="0 0 15.75 5.62"
 xmlns:xlink="http://www.w3.org/1999/xlink"
 xmlns:xodm="http://www.corel.com/coreldraw/odm/2003">
 <defs>
  <style type="text/css">
   <![CDATA[
    .fil2 {fill:white}
    .fil0 {fill:#FFBB00;fill-rule:nonzero}
    .fil1 {fill:white;fill-rule:nonzero}
   ]]>
  </style>
 </defs>
 <g id="Camada_x0020_1">
  <metadata id="CorelCorpID_0Corel-Layer"/>
  <g id="_2229769286224">
   <path class="fil0" d="M4.75 2.52l0.35 0c0.05,0 0.09,0.03 0.08,0.08l-0.03 0.16 0 0c0.03,-0.03 0.05,-0.05 0.08,-0.08 0.03,-0.02 0.06,-0.04 0.09,-0.06 0.03,-0.02 0.07,-0.04 0.1,-0.06 0.04,-0.02 0.07,-0.03 0.11,-0.05 0.04,-0.01 0.08,-0.02 0.11,-0.03 0.04,-0.01 0.08,-0.02 0.12,-0.02 0.04,0 0.08,-0.01 0.12,-0.01 0.08,0 0.15,0.01 0.22,0.02 0.06,0.01 0.12,0.03 0.18,0.05 0.04,0.02 0.07,0.05 0.06,0.09l-0.05 0.24c0,0.01 -0.01,0.02 -0.01,0.02 -0.03,0.05 -0.09,0.07 -0.14,0.06 -0.07,-0.02 -0.14,-0.03 -0.21,-0.04 -0.07,-0.01 -0.14,-0.01 -0.22,0 -0.08,0 -0.17,0.02 -0.24,0.04 -0.07,0.03 -0.13,0.06 -0.18,0.09 -0.02,0.02 -0.04,0.04 -0.05,0.06l-0.01 0c-0.02,0.03 -0.04,0.05 -0.05,0.07 -0.01,0.02 -0.03,0.05 -0.04,0.07 -0.01,0.03 -0.01,0.06 -0.02,0.09l-0.25 1.23c-0.01,0.04 -0.07,0.08 -0.12,0.08l-0.43 0c-0.05,0 -0.09,-0.04 -0.08,-0.08l0.39 -1.94c0.01,-0.05 0.07,-0.08 0.12,-0.08zm-1.95 1.76c0.33,0 0.55,-0.23 0.65,-0.7 0.02,-0.12 0.03,-0.23 0.03,-0.32 0,-0.09 -0.01,-0.17 -0.04,-0.23 -0.01,-0.03 -0.03,-0.05 -0.05,-0.07 -0.02,-0.03 -0.04,-0.04 -0.07,-0.06 -0.03,-0.01 -0.06,-0.02 -0.1,-0.03 -0.03,-0.01 -0.07,-0.01 -0.12,-0.01 -0.09,0 -0.17,0.01 -0.24,0.04 -0.07,0.03 -0.13,0.07 -0.18,0.12l0 0.01c-0.03,0.03 -0.06,0.06 -0.08,0.09 -0.02,0.04 -0.04,0.07 -0.06,0.11 -0.02,0.04 -0.04,0.09 -0.05,0.13 -0.02,0.05 -0.03,0.1 -0.04,0.15 -0.02,0.1 -0.03,0.18 -0.04,0.26 0,0.08 0,0.15 0.01,0.2 0.01,0.06 0.02,0.11 0.04,0.16 0.03,0.03 0.05,0.06 0.09,0.09 0.01,0.01 0.03,0.02 0.05,0.02 0.01,0.01 0.03,0.02 0.05,0.02l0.01 0c0.02,0.01 0.04,0.01 0.06,0.02l0 0c0.02,0 0.05,0 0.08,0zm-0.96 -0.86c0.01,-0.05 0.03,-0.1 0.04,-0.14 0.02,-0.04 0.04,-0.09 0.06,-0.13 0.03,-0.04 0.05,-0.08 0.08,-0.12 0.02,-0.04 0.05,-0.07 0.08,-0.11 0.03,-0.03 0.06,-0.06 0.09,-0.09 0.02,-0.03 0.06,-0.06 0.09,-0.08 0.03,-0.03 0.07,-0.05 0.1,-0.07l0.01 0c0.06,-0.04 0.13,-0.07 0.2,-0.1 0.06,-0.03 0.13,-0.05 0.2,-0.07 0.07,-0.02 0.14,-0.03 0.21,-0.04 0.07,-0.01 0.14,-0.02 0.21,-0.02 0.04,0 0.09,0.01 0.13,0.01l0.01 0c0.05,0 0.09,0.01 0.13,0.01 0.04,0.01 0.08,0.02 0.11,0.03 0.04,0.01 0.07,0.02 0.1,0.03l0.01 0.01c0.06,0.02 0.11,0.05 0.16,0.08 0.05,0.04 0.09,0.07 0.12,0.11 0.02,0.01 0.03,0.03 0.05,0.05l0 0.01c0.01,0.02 0.02,0.04 0.04,0.07 0.01,0.03 0.02,0.05 0.03,0.08 0,0.03 0.01,0.06 0.02,0.1 0.01,0.03 0.01,0.07 0.01,0.1 0.01,0.04 0.01,0.08 0.01,0.11l0 0.01c-0.01,0.04 -0.01,0.08 -0.01,0.12 -0.01,0.04 -0.02,0.09 -0.03,0.13 -0.02,0.1 -0.04,0.19 -0.07,0.27 -0.03,0.09 -0.07,0.16 -0.11,0.24 -0.04,0.07 -0.09,0.14 -0.15,0.2 -0.05,0.06 -0.11,0.11 -0.18,0.16 -0.06,0.05 -0.13,0.1 -0.2,0.13 -0.07,0.04 -0.15,0.07 -0.22,0.1 -0.08,0.02 -0.16,0.04 -0.24,0.05 -0.08,0.02 -0.17,0.02 -0.25,0.02 -0.17,0 -0.32,-0.02 -0.45,-0.07 -0.13,-0.05 -0.23,-0.12 -0.31,-0.21 -0.04,-0.05 -0.07,-0.1 -0.1,-0.16 -0.02,-0.06 -0.04,-0.12 -0.05,-0.19 -0.01,-0.07 -0.01,-0.15 -0.01,-0.23 0.01,-0.08 0.02,-0.16 0.04,-0.25 0.01,-0.05 0.02,-0.1 0.04,-0.15zm-1.69 1.11l0.33 -1.63 -0.31 0c-0.06,0 -0.1,-0.04 -0.09,-0.09l0.05 -0.21c0.01,-0.05 0.06,-0.09 0.12,-0.09l0.31 0 0.03 -0.13c0.01,-0.07 0.03,-0.13 0.05,-0.19l0 0c0.02,-0.06 0.05,-0.12 0.08,-0.16 0.03,-0.05 0.06,-0.1 0.09,-0.14 0.04,-0.04 0.08,-0.08 0.13,-0.11l0 0c0.04,-0.03 0.09,-0.05 0.13,-0.07 0.05,-0.03 0.1,-0.04 0.16,-0.06 0.05,-0.01 0.11,-0.02 0.17,-0.03 0.06,-0.01 0.12,-0.01 0.19,-0.01 0.06,0 0.13,0 0.19,0.01 0.06,0 0.12,0.01 0.18,0.03 0.05,0.01 0.09,0.02 0.13,0.03 0.04,0.01 0.08,0.03 0.12,0.05 0.05,0.01 0.06,0.06 0.04,0.1l-0.14 0.22c-0.03,0.04 -0.1,0.06 -0.15,0.04 -0.02,-0.01 -0.04,-0.02 -0.07,-0.02 -0.02,-0.01 -0.04,-0.02 -0.06,-0.02 -0.04,-0.01 -0.07,-0.02 -0.11,-0.02 -0.03,-0.01 -0.06,-0.01 -0.09,-0.01 -0.04,0 -0.07,0 -0.09,0.01l-0.01 0c-0.02,0 -0.05,0 -0.07,0.01 -0.03,0.01 -0.05,0.02 -0.06,0.02 -0.02,0.01 -0.04,0.02 -0.05,0.03l0 0.01c-0.01,0.01 -0.03,0.02 -0.04,0.04 -0.01,0.02 -0.02,0.03 -0.03,0.06 -0.02,0.02 -0.02,0.04 -0.03,0.06l0 0c-0.01,0.02 -0.02,0.05 -0.02,0.08l-0.04 0.17 0.62 0c0.06,0 0.09,0.04 0.08,0.09l-0.04 0.21c-0.01,0.05 -0.06,0.09 -0.12,0.09l-0.62 0 -0.33 1.63c-0.01,0.05 -0.06,0.09 -0.12,0.09l-0.43 0c-0.05,0 -0.09,-0.04 -0.08,-0.09z"/>
   <path class="fil1" d="M12.79 2.46c0.06,0.01 0.11,0.02 0.15,0.03 0.05,0.01 0.09,0.03 0.13,0.05 0.04,0.02 0.08,0.04 0.11,0.07 0.03,0.02 0.06,0.05 0.08,0.08 0.02,0.04 0.04,0.07 0.05,0.11 0.02,0.07 0.02,0.15 0,0.25 -0.01,0.06 -0.03,0.11 -0.05,0.17 -0.03,0.05 -0.07,0.11 -0.11,0.15 -0.02,0.03 -0.04,0.05 -0.06,0.07 -0.02,0.02 -0.05,0.04 -0.07,0.06 -0.03,0.02 -0.05,0.04 -0.07,0.05 -0.03,0.02 -0.06,0.03 -0.08,0.05 -0.05,0.02 -0.11,0.05 -0.17,0.07l0 0c-0.06,0.02 -0.12,0.04 -0.19,0.05l0 0.01c-0.06,0.01 -0.12,0.02 -0.18,0.03 -0.06,0.01 -0.12,0.02 -0.19,0.03 -0.06,0.01 -0.13,0.01 -0.19,0.01 -0.06,0.01 -0.12,0.01 -0.18,0.01 0,0.03 0,0.05 0,0.08 0,0.03 0.01,0.06 0.01,0.08l0 0.01c0.01,0.02 0.02,0.05 0.03,0.08 0.02,0.02 0.03,0.04 0.05,0.06 0.02,0.02 0.04,0.04 0.07,0.06 0.02,0.01 0.05,0.03 0.09,0.04 0.06,0.02 0.15,0.03 0.24,0.03 0.09,0 0.18,-0.01 0.27,-0.03 0.09,-0.03 0.18,-0.06 0.27,-0.1l0.02 -0.01c0.06,-0.02 0.11,0 0.13,0.04l0.08 0.22c0.01,0.04 -0.01,0.08 -0.06,0.1l-0.04 0.03 -0.05 0.02c-0.03,0.01 -0.07,0.02 -0.1,0.04 -0.03,0.01 -0.07,0.02 -0.11,0.03l-0.01 0.01c-0.04,0.01 -0.08,0.02 -0.12,0.03l-0.01 0c-0.04,0.01 -0.09,0.02 -0.13,0.02 -0.05,0.01 -0.1,0.02 -0.14,0.02 -0.05,0 -0.1,0 -0.15,0 -0.2,0 -0.37,-0.02 -0.5,-0.06 -0.15,-0.05 -0.26,-0.12 -0.33,-0.22 -0.04,-0.05 -0.07,-0.1 -0.1,-0.16 -0.02,-0.05 -0.04,-0.11 -0.05,-0.18 -0.01,-0.06 -0.01,-0.13 -0.01,-0.2 0.01,-0.08 0.02,-0.16 0.03,-0.23 0.02,-0.09 0.04,-0.16 0.07,-0.24 0.03,-0.07 0.06,-0.15 0.1,-0.22 0.05,-0.07 0.09,-0.13 0.15,-0.19 0.05,-0.07 0.11,-0.12 0.17,-0.18 0.07,-0.06 0.14,-0.1 0.21,-0.15 0.07,-0.04 0.15,-0.07 0.23,-0.1 0.08,-0.03 0.17,-0.05 0.26,-0.07 0.09,-0.01 0.18,-0.02 0.28,-0.02 0.06,0 0.11,0.01 0.17,0.01zm-0.5 0.91c0.03,0 0.06,-0.01 0.08,-0.02 0.03,-0.01 0.06,-0.02 0.08,-0.03l0.01 0c0.03,-0.02 0.05,-0.03 0.08,-0.04 0.03,-0.02 0.05,-0.03 0.07,-0.05 0.02,-0.01 0.04,-0.03 0.06,-0.05l0 0c0.01,-0.02 0.02,-0.03 0.03,-0.05l0 0c0.01,-0.02 0.02,-0.04 0.02,-0.06 0.01,-0.04 0.01,-0.07 0.01,-0.1 -0.01,-0.03 -0.02,-0.05 -0.04,-0.07 -0.02,-0.02 -0.04,-0.03 -0.07,-0.04 -0.03,-0.01 -0.07,-0.01 -0.12,-0.01 -0.09,0 -0.16,0.01 -0.24,0.04 -0.07,0.03 -0.13,0.07 -0.19,0.13 -0.03,0.03 -0.06,0.06 -0.08,0.09 -0.03,0.03 -0.05,0.07 -0.07,0.1 -0.02,0.04 -0.04,0.07 -0.05,0.11 -0.02,0.04 -0.03,0.07 -0.04,0.1l0.08 0 0.1 -0.01c0.03,0 0.06,0 0.1,-0.01 0.03,0 0.06,0 0.09,-0.01 0.03,0 0.05,-0.01 0.08,-0.01l0.01 -0.01zm-1.74 -0.91c0.06,0.01 0.11,0.02 0.16,0.03 0.04,0.01 0.08,0.03 0.12,0.05 0.04,0.02 0.08,0.04 0.11,0.07 0.03,0.02 0.06,0.05 0.08,0.08 0.02,0.04 0.04,0.07 0.05,0.11 0.02,0.07 0.03,0.15 0.01,0.25 -0.02,0.06 -0.04,0.11 -0.06,0.17 -0.03,0.05 -0.07,0.11 -0.11,0.15 -0.02,0.03 -0.04,0.05 -0.06,0.07 -0.02,0.02 -0.05,0.04 -0.07,0.06 -0.02,0.02 -0.05,0.04 -0.07,0.05 -0.03,0.02 -0.05,0.03 -0.08,0.05 -0.05,0.02 -0.1,0.05 -0.16,0.07l-0.01 0c-0.06,0.02 -0.12,0.04 -0.19,0.05l0 0.01c-0.06,0.01 -0.12,0.02 -0.18,0.03 -0.06,0.01 -0.12,0.02 -0.19,0.03 -0.06,0.01 -0.13,0.01 -0.19,0.01 -0.06,0.01 -0.12,0.01 -0.18,0.01 0,0.03 0,0.05 0,0.08 0,0.03 0.01,0.06 0.01,0.08l0 0.01c0.01,0.02 0.02,0.05 0.03,0.08 0.02,0.02 0.03,0.04 0.05,0.06 0.02,0.02 0.04,0.04 0.07,0.06 0.02,0.01 0.05,0.03 0.09,0.04 0.07,0.02 0.15,0.03 0.25,0.03 0.08,0 0.17,-0.01 0.26,-0.03 0.09,-0.03 0.18,-0.06 0.28,-0.1l0.01 -0.01c0.06,-0.02 0.12,0 0.13,0.04l0.08 0.22c0.01,0.04 -0.01,0.08 -0.06,0.1l-0.04 0.03 -0.05 0.02c-0.03,0.01 -0.07,0.02 -0.1,0.04 -0.03,0.01 -0.07,0.02 -0.11,0.03l-0.01 0.01c-0.04,0.01 -0.08,0.02 -0.12,0.03l-0.01 0c-0.04,0.01 -0.08,0.02 -0.13,0.02 -0.05,0.01 -0.09,0.02 -0.14,0.02 -0.05,0 -0.1,0 -0.15,0 -0.2,0 -0.37,-0.02 -0.5,-0.06 -0.15,-0.05 -0.26,-0.12 -0.33,-0.22 -0.04,-0.05 -0.07,-0.1 -0.09,-0.16 -0.03,-0.05 -0.05,-0.11 -0.06,-0.18 -0.01,-0.06 -0.01,-0.13 -0.01,-0.2 0.01,-0.08 0.02,-0.16 0.03,-0.23 0.02,-0.09 0.04,-0.16 0.07,-0.24 0.03,-0.07 0.06,-0.15 0.11,-0.22 0.04,-0.07 0.08,-0.13 0.14,-0.19 0.05,-0.07 0.11,-0.12 0.17,-0.18 0.07,-0.06 0.14,-0.1 0.21,-0.15 0.08,-0.04 0.15,-0.07 0.23,-0.1 0.09,-0.03 0.17,-0.05 0.26,-0.07 0.09,-0.01 0.18,-0.02 0.28,-0.02 0.06,0 0.12,0.01 0.17,0.01zm-0.5 0.91c0.03,0 0.06,-0.01 0.08,-0.02 0.03,-0.01 0.06,-0.02 0.08,-0.03l0.01 0c0.03,-0.02 0.05,-0.03 0.08,-0.04 0.03,-0.02 0.05,-0.03 0.07,-0.05 0.02,-0.01 0.04,-0.03 0.06,-0.05l0 0c0.01,-0.02 0.02,-0.03 0.03,-0.05l0 0c0.01,-0.02 0.02,-0.04 0.02,-0.06 0.01,-0.04 0.01,-0.07 0.01,-0.1 -0.01,-0.03 -0.02,-0.05 -0.04,-0.07 -0.01,-0.02 -0.04,-0.03 -0.07,-0.04 -0.03,-0.01 -0.07,-0.01 -0.12,-0.01 -0.08,0 -0.16,0.01 -0.23,0.04 -0.08,0.03 -0.14,0.07 -0.2,0.13 -0.03,0.03 -0.06,0.06 -0.08,0.09 -0.03,0.03 -0.05,0.07 -0.07,0.1 -0.02,0.04 -0.04,0.07 -0.05,0.11 -0.01,0.04 -0.03,0.07 -0.04,0.1l0.08 0 0.1 -0.01c0.03,0 0.07,0 0.1,-0.01 0.03,0 0.06,0 0.09,-0.01 0.03,0 0.05,-0.01 0.08,-0.01l0.01 -0.01zm-3.77 1.07l0.55 -2.7c0.01,-0.05 0.07,-0.09 0.12,-0.09l0.41 0c0.06,0 0.1,0.04 0.09,0.09l-0.18 0.86c0.03,-0.02 0.06,-0.04 0.09,-0.05l0.01 0c0.04,-0.02 0.09,-0.04 0.15,-0.06l0 0c0.06,-0.01 0.11,-0.02 0.17,-0.03 0.06,-0.01 0.12,-0.01 0.18,-0.01 0.07,0 0.15,0.01 0.21,0.02 0.07,0.01 0.13,0.02 0.19,0.05l0.01 0c0.06,0.02 0.11,0.05 0.15,0.08 0.05,0.04 0.09,0.07 0.13,0.12 0.03,0.04 0.06,0.09 0.08,0.14l0.01 0.01c0.02,0.05 0.04,0.11 0.05,0.17 0.01,0.06 0.01,0.13 0.01,0.2 -0.01,0.07 -0.02,0.15 -0.03,0.22 -0.04,0.2 -0.1,0.37 -0.18,0.52l0 0c-0.08,0.15 -0.18,0.28 -0.3,0.38l-0.01 0.01c-0.12,0.1 -0.26,0.18 -0.43,0.23 -0.16,0.05 -0.34,0.07 -0.53,0.07 -0.09,0 -0.17,0 -0.26,-0.01 -0.09,-0.01 -0.17,-0.02 -0.26,-0.04l-0.01 0c-0.04,-0.01 -0.08,-0.02 -0.13,-0.03 -0.04,-0.01 -0.07,-0.02 -0.1,-0.03l-0.01 0c-0.02,0 -0.05,-0.01 -0.07,-0.02 -0.02,-0.01 -0.04,-0.02 -0.06,-0.03 -0.03,-0.01 -0.06,-0.04 -0.05,-0.07zm0.88 -1.3l-0.21 1.05c0.02,0.01 0.05,0.02 0.07,0.03 0.03,0.01 0.06,0.02 0.1,0.03 0.03,0 0.06,0.01 0.1,0.01 0.04,0.01 0.07,0.01 0.11,0.01 0.18,0 0.32,-0.06 0.43,-0.17 0.12,-0.12 0.2,-0.31 0.25,-0.57 0.03,-0.12 0.04,-0.22 0.03,-0.3 0,-0.09 -0.02,-0.15 -0.05,-0.21 -0.04,-0.05 -0.08,-0.09 -0.14,-0.12 -0.06,-0.03 -0.13,-0.04 -0.22,-0.04 -0.03,0 -0.05,0 -0.08,0 -0.02,0.01 -0.05,0.01 -0.07,0.02l-0.01 0c-0.02,0.01 -0.05,0.01 -0.07,0.02 -0.03,0.01 -0.05,0.02 -0.07,0.04l0 0c-0.03,0.01 -0.05,0.03 -0.07,0.04 -0.02,0.02 -0.03,0.03 -0.04,0.05 -0.02,0.02 -0.03,0.04 -0.04,0.05 -0.01,0.02 -0.01,0.04 -0.02,0.06z"/>
   <path class="fil1" d="M0.23 5.62c-0.05,0 -0.09,-0.01 -0.12,-0.02 -0.04,-0.02 -0.07,-0.04 -0.08,-0.07 -0.02,-0.03 -0.03,-0.07 -0.03,-0.11 0,-0.05 0.01,-0.1 0.04,-0.15 0.02,-0.04 0.06,-0.08 0.1,-0.1 0.05,-0.03 0.1,-0.04 0.16,-0.04 0.04,0 0.07,0 0.1,0.01 0.03,0.02 0.05,0.03 0.07,0.06l-0.04 0.03c-0.03,-0.04 -0.07,-0.06 -0.14,-0.06 -0.05,0 -0.09,0.01 -0.12,0.04 -0.04,0.02 -0.07,0.05 -0.09,0.08 -0.02,0.04 -0.03,0.08 -0.03,0.13 0,0.05 0.02,0.08 0.05,0.11 0.03,0.03 0.07,0.05 0.13,0.05 0.07,0 0.12,-0.02 0.16,-0.06l0.03 0.03c-0.03,0.02 -0.05,0.04 -0.09,0.05 -0.03,0.02 -0.06,0.02 -0.1,0.02z"/>
   <path id="1" class="fil1" d="M0.8 5.62c-0.04,0 -0.09,-0.01 -0.12,-0.02 -0.03,-0.02 -0.06,-0.04 -0.08,-0.07 -0.01,-0.03 -0.02,-0.07 -0.02,-0.11 0,-0.05 0.01,-0.1 0.03,-0.15 0.03,-0.04 0.06,-0.08 0.11,-0.1 0.04,-0.03 0.09,-0.04 0.15,-0.04 0.05,0 0.09,0 0.12,0.02 0.04,0.02 0.06,0.04 0.08,0.07 0.02,0.03 0.03,0.07 0.03,0.11 0,0.05 -0.01,0.1 -0.04,0.15 -0.02,0.04 -0.06,0.08 -0.1,0.1 -0.05,0.03 -0.1,0.04 -0.16,0.04zm0.01 -0.04c0.04,0 0.09,-0.02 0.12,-0.04 0.04,-0.02 0.07,-0.05 0.09,-0.09 0.02,-0.03 0.03,-0.07 0.03,-0.12 0,-0.05 -0.02,-0.09 -0.05,-0.11 -0.03,-0.03 -0.08,-0.05 -0.13,-0.05 -0.05,0 -0.09,0.01 -0.13,0.04 -0.03,0.02 -0.06,0.05 -0.08,0.08 -0.02,0.04 -0.03,0.08 -0.03,0.13 0,0.05 0.01,0.08 0.04,0.11 0.04,0.03 0.08,0.05 0.14,0.05z"/>
   <polygon id="2" class="fil1" points="1.75,5.13 1.65,5.62 1.61,5.62 1.38,5.21 1.3,5.62 1.25,5.62 1.34,5.13 1.39,5.13 1.62,5.53 1.7,5.13 "/>
   <polygon id="3" class="fil1" points="2.04,5.17 2,5.35 2.26,5.35 2.25,5.39 2,5.39 1.96,5.57 2.25,5.57 2.24,5.62 1.9,5.62 2,5.13 2.33,5.13 2.32,5.17 "/>
   <path id="4" class="fil1" d="M2.68 5.62c-0.05,0 -0.09,-0.01 -0.12,-0.02 -0.04,-0.02 -0.06,-0.04 -0.08,-0.07 -0.02,-0.03 -0.03,-0.07 -0.03,-0.11 0,-0.05 0.01,-0.1 0.04,-0.15 0.02,-0.04 0.06,-0.08 0.1,-0.1 0.05,-0.03 0.1,-0.04 0.16,-0.04 0.04,0 0.07,0 0.1,0.01 0.03,0.02 0.06,0.03 0.07,0.06l-0.03 0.03c-0.04,-0.04 -0.08,-0.06 -0.15,-0.06 -0.04,0 -0.09,0.01 -0.12,0.04 -0.04,0.02 -0.07,0.05 -0.09,0.08 -0.02,0.04 -0.03,0.08 -0.03,0.13 0,0.05 0.02,0.08 0.05,0.11 0.03,0.03 0.08,0.05 0.13,0.05 0.07,0 0.12,-0.02 0.16,-0.06l0.03 0.03c-0.02,0.02 -0.05,0.04 -0.08,0.05 -0.04,0.02 -0.07,0.02 -0.11,0.02z"/>
   <polygon id="5" class="fil1" points="3.21,5.17 3.04,5.17 3.05,5.13 3.45,5.13 3.44,5.17 3.27,5.17 3.18,5.62 3.13,5.62 "/>
   <path id="6" class="fil1" d="M3.83 5.49l-0.27 0 -0.09 0.13 -0.05 0 0.32 -0.49 0.05 0 0.12 0.49 -0.05 0 -0.03 -0.13zm-0.01 -0.04l-0.07 -0.27 -0.17 0.27 0.24 0z"/>
   <polygon id="7" class="fil1" points="4.58,5.13 4.49,5.62 4.44,5.62 4.21,5.21 4.13,5.62 4.08,5.62 4.18,5.13 4.22,5.13 4.45,5.53 4.53,5.13 "/>
   <path id="8" class="fil1" d="M4.83 5.13l0.19 0c0.04,0 0.09,0.01 0.12,0.02 0.03,0.02 0.06,0.04 0.08,0.07 0.02,0.03 0.03,0.07 0.03,0.11 0,0.06 -0.02,0.11 -0.04,0.15 -0.03,0.04 -0.06,0.08 -0.11,0.1 -0.04,0.03 -0.1,0.04 -0.16,0.04l-0.21 0 0.1 -0.49zm0.11 0.44c0.05,0 0.1,-0.01 0.14,-0.03 0.03,-0.02 0.06,-0.05 0.08,-0.08 0.02,-0.04 0.03,-0.08 0.03,-0.13 0,-0.05 -0.01,-0.09 -0.04,-0.11 -0.03,-0.03 -0.08,-0.05 -0.14,-0.05l-0.14 0 -0.08 0.4 0.15 0z"/>
   <path id="9" class="fil1" d="M5.62 5.62c-0.05,0 -0.09,-0.01 -0.12,-0.02 -0.03,-0.02 -0.06,-0.04 -0.08,-0.07 -0.01,-0.03 -0.02,-0.07 -0.02,-0.11 0,-0.05 0.01,-0.1 0.03,-0.15 0.03,-0.04 0.06,-0.08 0.11,-0.1 0.04,-0.03 0.09,-0.04 0.15,-0.04 0.05,0 0.09,0 0.12,0.02 0.04,0.02 0.06,0.04 0.08,0.07 0.02,0.03 0.03,0.07 0.03,0.11 0,0.05 -0.02,0.1 -0.04,0.15 -0.02,0.04 -0.06,0.08 -0.1,0.1 -0.05,0.03 -0.1,0.04 -0.16,0.04zm0.01 -0.04c0.04,0 0.09,-0.02 0.12,-0.04 0.04,-0.02 0.07,-0.05 0.09,-0.09 0.01,-0.03 0.02,-0.07 0.02,-0.12 0,-0.05 -0.01,-0.09 -0.04,-0.11 -0.03,-0.03 -0.08,-0.05 -0.13,-0.05 -0.05,0 -0.09,0.01 -0.13,0.04 -0.04,0.02 -0.06,0.05 -0.08,0.08 -0.02,0.04 -0.03,0.08 -0.03,0.13 0,0.05 0.01,0.08 0.04,0.11 0.03,0.03 0.08,0.05 0.14,0.05z"/>
   <path id="10" class="fil1" d="M6.52 5.13c0.06,0 0.1,0.01 0.13,0.04 0.03,0.02 0.04,0.05 0.04,0.1 0,0.06 -0.02,0.11 -0.06,0.14 -0.04,0.04 -0.09,0.05 -0.16,0.05l-0.14 0 -0.03 0.16 -0.05 0 0.1 -0.49 0.17 0zm-0.05 0.29c0.05,0 0.1,-0.01 0.13,-0.04 0.03,-0.02 0.04,-0.06 0.04,-0.11 0,-0.03 -0.01,-0.05 -0.03,-0.07 -0.02,-0.02 -0.05,-0.03 -0.09,-0.03l-0.13 0 -0.05 0.25 0.13 0z"/>
   <path id="11" class="fil1" d="M7.28 5.27c0,0.05 -0.02,0.09 -0.04,0.12 -0.03,0.03 -0.07,0.05 -0.11,0.06l0.09 0.17 -0.06 0 -0.09 -0.16c0,0 -0.01,0 -0.02,0l-0.14 0 -0.03 0.16 -0.05 0 0.1 -0.49 0.17 0c0.06,0 0.1,0.01 0.13,0.04 0.03,0.02 0.05,0.05 0.05,0.1zm-0.23 0.15c0.06,0 0.1,-0.01 0.13,-0.04 0.03,-0.02 0.04,-0.06 0.04,-0.11 0,-0.03 -0.01,-0.05 -0.03,-0.07 -0.02,-0.02 -0.05,-0.03 -0.09,-0.03l-0.13 0 -0.05 0.25 0.13 0z"/>
   <path id="12" class="fil1" d="M7.65 5.62c-0.05,0 -0.09,-0.01 -0.13,-0.02 -0.03,-0.02 -0.06,-0.04 -0.07,-0.07 -0.02,-0.03 -0.03,-0.07 -0.03,-0.11 0,-0.05 0.01,-0.1 0.04,-0.15 0.02,-0.04 0.05,-0.08 0.1,-0.1 0.04,-0.03 0.1,-0.04 0.15,-0.04 0.05,0 0.09,0 0.13,0.02 0.03,0.02 0.06,0.04 0.07,0.07 0.02,0.03 0.03,0.07 0.03,0.11 0,0.05 -0.01,0.1 -0.04,0.15 -0.02,0.04 -0.06,0.08 -0.1,0.1 -0.04,0.03 -0.1,0.04 -0.15,0.04zm0 -0.04c0.05,0 0.09,-0.02 0.13,-0.04 0.03,-0.02 0.06,-0.05 0.08,-0.09 0.02,-0.03 0.03,-0.07 0.03,-0.12 0,-0.05 -0.02,-0.09 -0.05,-0.11 -0.03,-0.03 -0.07,-0.05 -0.13,-0.05 -0.05,0 -0.09,0.01 -0.13,0.04 -0.03,0.02 -0.06,0.05 -0.08,0.08 -0.02,0.04 -0.03,0.08 -0.03,0.13 0,0.05 0.02,0.08 0.05,0.11 0.03,0.03 0.07,0.05 0.13,0.05z"/>
   <polygon id="13" class="fil1" points="8.23,5.17 8.19,5.37 8.44,5.37 8.43,5.41 8.18,5.41 8.14,5.62 8.09,5.62 8.19,5.13 8.52,5.13 8.51,5.17 "/>
   <polygon id="14" class="fil1" points="8.72,5.13 8.77,5.13 8.67,5.62 8.62,5.62 "/>
   <path id="15" class="fil1" d="M9.06 5.62c-0.04,0 -0.07,0 -0.11,-0.02 -0.03,-0.01 -0.05,-0.02 -0.07,-0.04l0.03 -0.04c0.01,0.02 0.03,0.03 0.06,0.04 0.03,0.01 0.06,0.02 0.09,0.02 0.04,0 0.08,-0.01 0.11,-0.03 0.02,-0.01 0.04,-0.04 0.04,-0.07 0,-0.01 -0.01,-0.03 -0.02,-0.04 -0.01,-0.01 -0.02,-0.02 -0.04,-0.02 -0.01,-0.01 -0.03,-0.02 -0.06,-0.02 -0.03,-0.01 -0.05,-0.02 -0.07,-0.03 -0.02,-0.01 -0.04,-0.02 -0.05,-0.03 -0.01,-0.02 -0.02,-0.04 -0.02,-0.07 0,-0.03 0.01,-0.05 0.03,-0.08 0.01,-0.02 0.04,-0.03 0.07,-0.05 0.02,-0.01 0.06,-0.01 0.1,-0.01 0.03,0 0.05,0 0.08,0.01 0.03,0 0.05,0.01 0.07,0.03l-0.02 0.04c-0.02,-0.01 -0.04,-0.02 -0.06,-0.03 -0.03,-0.01 -0.05,-0.01 -0.08,-0.01 -0.04,0 -0.07,0.01 -0.1,0.03 -0.03,0.01 -0.04,0.04 -0.04,0.07 0,0.01 0.01,0.03 0.02,0.04 0.01,0.01 0.02,0.02 0.04,0.02 0.01,0.01 0.03,0.02 0.06,0.03 0.03,0 0.05,0.01 0.07,0.02 0.02,0.01 0.03,0.02 0.05,0.04 0.01,0.01 0.02,0.03 0.02,0.06 0,0.03 -0.01,0.05 -0.03,0.07 -0.02,0.03 -0.04,0.04 -0.07,0.05 -0.03,0.02 -0.06,0.02 -0.1,0.02z"/>
   <path id="16" class="fil1" d="M9.57 5.62c-0.03,0 -0.07,0 -0.1,-0.02 -0.03,-0.01 -0.06,-0.02 -0.07,-0.04l0.02 -0.04c0.02,0.02 0.04,0.03 0.07,0.04 0.03,0.01 0.06,0.02 0.09,0.02 0.04,0 0.07,-0.01 0.1,-0.03 0.03,-0.01 0.04,-0.04 0.04,-0.07 0,-0.01 0,-0.03 -0.01,-0.04 -0.01,-0.01 -0.03,-0.02 -0.04,-0.02 -0.02,-0.01 -0.04,-0.02 -0.06,-0.02 -0.03,-0.01 -0.06,-0.02 -0.08,-0.03 -0.01,-0.01 -0.03,-0.02 -0.04,-0.03 -0.02,-0.02 -0.02,-0.04 -0.02,-0.07 0,-0.03 0.01,-0.05 0.02,-0.08 0.02,-0.02 0.04,-0.03 0.07,-0.05 0.03,-0.01 0.06,-0.01 0.1,-0.01 0.03,0 0.06,0 0.09,0.01 0.02,0 0.04,0.01 0.06,0.03l-0.02 0.04c-0.02,-0.01 -0.04,-0.02 -0.06,-0.03 -0.02,-0.01 -0.05,-0.01 -0.07,-0.01 -0.04,0 -0.08,0.01 -0.1,0.03 -0.03,0.01 -0.04,0.04 -0.04,0.07 0,0.01 0,0.03 0.01,0.04 0.01,0.01 0.03,0.02 0.04,0.02 0.02,0.01 0.04,0.02 0.06,0.03 0.03,0 0.06,0.01 0.07,0.02 0.02,0.01 0.04,0.02 0.05,0.04 0.01,0.01 0.02,0.03 0.02,0.06 0,0.03 -0.01,0.05 -0.02,0.07 -0.02,0.03 -0.04,0.04 -0.07,0.05 -0.03,0.02 -0.07,0.02 -0.11,0.02z"/>
   <polygon id="17" class="fil1" points="10.04,5.13 10.09,5.13 10,5.62 9.95,5.62 "/>
   <path id="18" class="fil1" d="M10.47 5.62c-0.05,0 -0.09,-0.01 -0.12,-0.02 -0.04,-0.02 -0.06,-0.04 -0.08,-0.07 -0.02,-0.03 -0.03,-0.07 -0.03,-0.11 0,-0.05 0.02,-0.1 0.04,-0.15 0.02,-0.04 0.06,-0.08 0.1,-0.1 0.05,-0.03 0.1,-0.04 0.16,-0.04 0.05,0 0.09,0 0.12,0.02 0.03,0.02 0.06,0.04 0.08,0.07 0.02,0.03 0.02,0.07 0.02,0.11 0,0.05 -0.01,0.1 -0.03,0.15 -0.03,0.04 -0.06,0.08 -0.11,0.1 -0.04,0.03 -0.09,0.04 -0.15,0.04zm0 -0.04c0.05,0 0.09,-0.02 0.13,-0.04 0.04,-0.02 0.06,-0.05 0.08,-0.09 0.02,-0.03 0.03,-0.07 0.03,-0.12 0,-0.05 -0.01,-0.09 -0.04,-0.11 -0.04,-0.03 -0.08,-0.05 -0.14,-0.05 -0.04,0 -0.09,0.01 -0.12,0.04 -0.04,0.02 -0.07,0.05 -0.09,0.08 -0.02,0.04 -0.03,0.08 -0.03,0.13 0,0.05 0.02,0.08 0.05,0.11 0.03,0.03 0.08,0.05 0.13,0.05z"/>
   <polygon id="19" class="fil1" points="11.42,5.13 11.32,5.62 11.28,5.62 11.05,5.21 10.96,5.62 10.91,5.62 11.01,5.13 11.05,5.13 11.29,5.53 11.37,5.13 "/>
   <path id="20" class="fil1" d="M11.9 5.49l-0.27 0 -0.09 0.13 -0.05 0 0.32 -0.49 0.05 0 0.13 0.49 -0.06 0 -0.03 -0.13zm-0.01 -0.04l-0.06 -0.27 -0.17 0.27 0.23 0z"/>
   <polygon id="21" class="fil1" points="12.25,5.13 12.3,5.13 12.2,5.62 12.15,5.62 "/>
   <path id="22" class="fil1" d="M12.59 5.62c-0.03,0 -0.07,0 -0.1,-0.02 -0.03,-0.01 -0.06,-0.02 -0.07,-0.04l0.02 -0.04c0.02,0.02 0.04,0.03 0.07,0.04 0.03,0.01 0.06,0.02 0.09,0.02 0.04,0 0.08,-0.01 0.1,-0.03 0.03,-0.01 0.04,-0.04 0.04,-0.07 0,-0.01 0,-0.03 -0.01,-0.04 -0.01,-0.01 -0.03,-0.02 -0.04,-0.02 -0.02,-0.01 -0.04,-0.02 -0.06,-0.02 -0.03,-0.01 -0.06,-0.02 -0.07,-0.03 -0.02,-0.01 -0.04,-0.02 -0.05,-0.03 -0.02,-0.02 -0.02,-0.04 -0.02,-0.07 0,-0.03 0.01,-0.05 0.02,-0.08 0.02,-0.02 0.04,-0.03 0.07,-0.05 0.03,-0.01 0.06,-0.01 0.1,-0.01 0.03,0 0.06,0 0.09,0.01 0.02,0 0.04,0.01 0.06,0.03l-0.02 0.04c-0.02,-0.01 -0.04,-0.02 -0.06,-0.03 -0.02,-0.01 -0.05,-0.01 -0.07,-0.01 -0.04,0 -0.08,0.01 -0.1,0.03 -0.03,0.01 -0.04,0.04 -0.04,0.07 0,0.01 0,0.03 0.01,0.04 0.01,0.01 0.03,0.02 0.04,0.02 0.02,0.01 0.04,0.02 0.06,0.03 0.03,0 0.06,0.01 0.07,0.02 0.02,0.01 0.04,0.02 0.05,0.04 0.01,0.01 0.02,0.03 0.02,0.06 0,0.03 -0.01,0.05 -0.02,0.07 -0.02,0.03 -0.04,0.04 -0.07,0.05 -0.03,0.02 -0.07,0.02 -0.11,0.02z"/>
   <path class="fil2" d="M13.74 4.07c0,0 -0.07,0.38 -0.25,0.4 -0.19,0.03 -0.02,0.19 0.32,-0.03 0.33,-0.23 -0.07,-0.37 -0.07,-0.37z"/>
   <path class="fil0" d="M14.1 0.93c0,0 0.54,1.18 -0.22,2.38 -0.21,0.34 -0.17,0.64 -0.12,0.83l0 0 0 0 0 0c0.01,0.02 0.01,0.03 0.02,0.05l0 0 0 0c0.01,0.02 0.01,0.03 0.02,0.05 0.06,0.11 0.16,0.2 0.28,0.27 0.19,0.1 0.42,0.15 0.6,0.14 0.2,-0.01 0.38,-0.08 0.55,-0.18 0.16,-0.11 0.3,-0.26 0.4,-0.44 0.06,-0.11 0.1,-0.23 0.11,-0.35 0.02,-0.13 0.01,-0.25 -0.02,-0.36 -0.04,-0.13 -0.12,-0.26 -0.22,-0.35 -0.1,-0.09 -0.23,-0.15 -0.36,-0.17 -0.04,-0.01 -0.07,-0.01 -0.1,-0.01l0 0 0 0c-0.11,-0.01 -0.21,-0.05 -0.13,-0.23 0.31,-0.63 0.84,-1.75 0.65,-2.43 -0.05,-0.16 -0.22,-0.16 -0.43,-0.06 -0.14,0.06 -0.45,0.22 -0.69,0.35 -0.21,0.12 -0.48,0.25 -0.34,0.51zm0.7 3.14c-0.13,0.04 -0.27,0.04 -0.39,-0.03 -0.05,-0.03 -0.09,-0.07 -0.11,-0.11 -0.03,-0.05 -0.04,-0.1 -0.03,-0.16 0,-0.05 0.02,-0.1 0.05,-0.15 0.04,-0.08 0.11,-0.14 0.18,-0.18 0.07,-0.04 0.15,-0.07 0.23,-0.08 0.09,-0.01 0.18,-0.01 0.25,0.01 0.07,0.01 0.12,0.03 0.16,0.06 0.04,0.04 0.07,0.08 0.09,0.12 0.02,0.04 0.02,0.09 0.01,0.14 -0.01,0.05 -0.03,0.09 -0.07,0.14 -0.07,0.1 -0.21,0.2 -0.37,0.24z"/>
   <path class="fil1" d="M13.88 2.92c0.32,-0.81 0.23,-1.61 -0.32,-2.21 -0.26,-0.29 -0.66,-0.51 -0.96,-0.31 -0.38,0.25 -0.36,0.69 -0.03,0.98 0.53,0.45 1.2,0.59 1.31,1.54z"/>
  </g>
 </g>
</svg>
