<?xml version="1.0" encoding="UTF-8"?>
<!DOCTYPE svg PUBLIC "-//W3C//DTD SVG 1.1//EN" "http://www.w3.org/Graphics/SVG/1.1/DTD/svg11.dtd">
<!-- Creator: CorelDRAW 2020 (64 Bit) -->
<svg xmlns="http://www.w3.org/2000/svg" xml:space="preserve" width="1375px" height="491px" version="1.1" style="shape-rendering:geometricPrecision; text-rendering:geometricPrecision; image-rendering:optimizeQuality; fill-rule:evenodd; clip-rule:evenodd"
viewBox="0 0 46.83 16.71"
 xmlns:xlink="http://www.w3.org/1999/xlink"
 xmlns:xodm="http://www.corel.com/coreldraw/odm/2003">
 <defs>
  <style type="text/css">
   <![CDATA[
    .fil3 {fill:black}
    .fil2 {fill:black;fill-rule:nonzero}
    .fil1 {fill:black;fill-rule:nonzero}
    .fil0 {fill:#FFBB00;fill-rule:nonzero}
   ]]>
  </style>
 </defs>
 <g id="Camada_x0020_1">
  <metadata id="CorelCorpID_0Corel-Layer"/>
  <path class="fil0" d="M14.13 7.48l1.02 0c0.17,0 0.28,0.11 0.25,0.25l-0.09 0.48 0.01 -0.02c0.07,-0.07 0.15,-0.14 0.23,-0.21 0.08,-0.07 0.17,-0.13 0.27,-0.19 0.1,-0.06 0.19,-0.12 0.3,-0.17 0.11,-0.06 0.21,-0.11 0.32,-0.14 0.11,-0.04 0.22,-0.08 0.34,-0.11 0.11,-0.02 0.23,-0.04 0.35,-0.06 0.12,-0.01 0.24,-0.02 0.36,-0.02 0.22,0 0.43,0.02 0.63,0.06 0.2,0.03 0.39,0.09 0.56,0.16 0.12,0.03 0.19,0.13 0.16,0.24l-0.15 0.72c0,0.02 -0.01,0.05 -0.03,0.08 -0.08,0.13 -0.26,0.2 -0.41,0.16 -0.19,-0.05 -0.4,-0.09 -0.62,-0.12 -0.21,-0.02 -0.43,-0.02 -0.65,-0.01 -0.25,0.02 -0.5,0.07 -0.72,0.14 -0.2,0.07 -0.37,0.16 -0.52,0.27 -0.06,0.05 -0.12,0.11 -0.18,0.16l-0.01 0.02c-0.06,0.06 -0.11,0.13 -0.15,0.19 -0.04,0.07 -0.08,0.15 -0.11,0.23 -0.03,0.07 -0.05,0.15 -0.07,0.24l-0.75 3.65c-0.03,0.14 -0.19,0.26 -0.35,0.26l-1.27 0c-0.17,0 -0.28,-0.12 -0.25,-0.26l1.17 -5.75c0.03,-0.14 0.19,-0.25 0.36,-0.25zm-5.81 5.24c1,0 1.64,-0.69 1.92,-2.08 0.08,-0.37 0.11,-0.68 0.11,-0.96 -0.01,-0.26 -0.05,-0.48 -0.12,-0.66 -0.04,-0.09 -0.09,-0.16 -0.15,-0.23 -0.06,-0.07 -0.13,-0.12 -0.22,-0.16 -0.08,-0.05 -0.17,-0.08 -0.28,-0.1 -0.11,-0.02 -0.23,-0.04 -0.36,-0.04 -0.27,0 -0.51,0.05 -0.72,0.13 -0.2,0.08 -0.37,0.2 -0.53,0.36l-0.01 0.02c-0.08,0.09 -0.16,0.18 -0.23,0.28 -0.06,0.1 -0.13,0.22 -0.18,0.34 -0.06,0.11 -0.11,0.24 -0.15,0.38 -0.05,0.13 -0.08,0.27 -0.12,0.43 -0.06,0.29 -0.09,0.55 -0.11,0.78 -0.01,0.23 -0.01,0.43 0.02,0.6 0.02,0.18 0.07,0.33 0.14,0.46 0.06,0.11 0.14,0.2 0.24,0.27 0.05,0.03 0.1,0.06 0.15,0.08 0.05,0.02 0.11,0.04 0.17,0.05l0.01 0.01c0.06,0.01 0.12,0.02 0.19,0.03l0.01 0c0.06,0.01 0.13,0.01 0.22,0.01zm-2.86 -2.56c0.04,-0.14 0.09,-0.28 0.14,-0.41 0.05,-0.13 0.11,-0.26 0.18,-0.38 0.07,-0.13 0.14,-0.25 0.21,-0.36 0.08,-0.11 0.16,-0.22 0.24,-0.31 0.09,-0.11 0.18,-0.2 0.27,-0.29 0.08,-0.08 0.18,-0.16 0.28,-0.24 0.1,-0.08 0.2,-0.14 0.3,-0.2l0.02 -0.01c0.19,-0.11 0.39,-0.21 0.59,-0.29 0.2,-0.08 0.4,-0.15 0.6,-0.21 0.21,-0.05 0.41,-0.1 0.62,-0.12 0.21,-0.03 0.42,-0.05 0.63,-0.05 0.13,0 0.26,0.01 0.39,0.02l0.03 0c0.13,0.01 0.26,0.02 0.38,0.05 0.12,0.01 0.24,0.04 0.35,0.07 0.1,0.03 0.19,0.06 0.29,0.1l0.01 0.01c0.18,0.08 0.35,0.16 0.49,0.26 0.15,0.09 0.27,0.2 0.36,0.3 0.05,0.06 0.09,0.11 0.13,0.17l0.01 0.02c0.03,0.06 0.07,0.13 0.11,0.21 0.03,0.08 0.06,0.16 0.09,0.25 0.02,0.08 0.05,0.17 0.07,0.28 0.02,0.1 0.03,0.2 0.04,0.31 0.01,0.11 0.01,0.22 0,0.33l0 0.01c0,0.12 -0.01,0.24 -0.03,0.37 -0.01,0.13 -0.03,0.26 -0.06,0.39 -0.06,0.28 -0.13,0.55 -0.22,0.8 -0.1,0.25 -0.21,0.49 -0.33,0.7 -0.13,0.22 -0.27,0.42 -0.43,0.6 -0.16,0.18 -0.34,0.35 -0.54,0.5 -0.19,0.14 -0.4,0.27 -0.61,0.38 -0.21,0.11 -0.43,0.21 -0.66,0.28 -0.22,0.07 -0.46,0.13 -0.7,0.17 -0.25,0.03 -0.49,0.05 -0.75,0.05 -0.51,0 -0.95,-0.07 -1.32,-0.21 -0.38,-0.14 -0.69,-0.35 -0.93,-0.63 -0.12,-0.15 -0.21,-0.31 -0.29,-0.48 -0.07,-0.17 -0.12,-0.36 -0.15,-0.57 -0.03,-0.21 -0.04,-0.43 -0.03,-0.67 0.02,-0.23 0.05,-0.49 0.11,-0.76 0.03,-0.15 0.06,-0.29 0.11,-0.44zm-5.02 3.31l0.99 -4.85 -0.94 0c-0.16,0 -0.28,-0.12 -0.25,-0.26l0.13 -0.64c0.03,-0.14 0.19,-0.25 0.36,-0.25l0.94 0 0.08 -0.4c0.04,-0.2 0.09,-0.38 0.15,-0.56l0.01 0c0.06,-0.18 0.14,-0.34 0.22,-0.49 0.09,-0.14 0.18,-0.28 0.29,-0.4 0.11,-0.12 0.23,-0.23 0.37,-0.32l0.01 0c0.12,-0.09 0.25,-0.16 0.39,-0.23 0.14,-0.06 0.29,-0.11 0.45,-0.16 0.17,-0.04 0.34,-0.07 0.52,-0.09 0.18,-0.03 0.37,-0.04 0.56,-0.04 0.2,0 0.39,0.01 0.58,0.03 0.18,0.02 0.36,0.05 0.53,0.08 0.13,0.03 0.26,0.07 0.39,0.11 0.12,0.04 0.24,0.08 0.35,0.13 0.14,0.05 0.19,0.19 0.11,0.32l-0.41 0.64c-0.1,0.13 -0.29,0.18 -0.43,0.13 -0.07,-0.03 -0.14,-0.06 -0.21,-0.08 -0.07,-0.02 -0.14,-0.04 -0.2,-0.06 -0.1,-0.02 -0.2,-0.04 -0.3,-0.05 -0.1,-0.02 -0.2,-0.02 -0.29,-0.02 -0.1,0 -0.19,0 -0.27,0.01l-0.01 0c-0.08,0.01 -0.16,0.03 -0.22,0.05 -0.07,0.02 -0.14,0.04 -0.19,0.07 -0.05,0.02 -0.09,0.05 -0.13,0.09l-0.01 0c-0.04,0.04 -0.08,0.08 -0.12,0.13 -0.03,0.05 -0.07,0.11 -0.1,0.17 -0.03,0.06 -0.06,0.12 -0.08,0.19l0 0c-0.02,0.07 -0.05,0.15 -0.06,0.24l-0.11 0.51 1.84 0c0.17,0 0.28,0.11 0.25,0.25l-0.13 0.64c-0.03,0.14 -0.19,0.26 -0.36,0.26l-1.83 0 -1 4.85c-0.02,0.14 -0.18,0.26 -0.35,0.26l-1.27 0c-0.16,0 -0.28,-0.12 -0.25,-0.26z"/>
  <path class="fil1" d="M38.02 7.32c0.17,0.02 0.32,0.05 0.46,0.09 0.14,0.04 0.27,0.08 0.39,0.14 0.11,0.06 0.22,0.13 0.31,0.2 0.1,0.08 0.18,0.17 0.24,0.26 0.07,0.09 0.12,0.19 0.15,0.3 0.07,0.22 0.07,0.47 0.01,0.74 -0.03,0.18 -0.09,0.35 -0.17,0.52 -0.08,0.17 -0.19,0.32 -0.31,0.46 -0.06,0.07 -0.13,0.14 -0.19,0.2 -0.07,0.06 -0.14,0.12 -0.2,0.17 -0.08,0.06 -0.15,0.11 -0.22,0.16 -0.08,0.05 -0.16,0.09 -0.23,0.13 -0.15,0.08 -0.31,0.15 -0.49,0.21l-0.02 0.01c-0.17,0.06 -0.36,0.12 -0.56,0.16l-0.01 0.01c-0.17,0.04 -0.35,0.07 -0.54,0.11 -0.17,0.03 -0.35,0.05 -0.54,0.07 -0.19,0.02 -0.38,0.04 -0.58,0.05 -0.17,0.01 -0.35,0.01 -0.52,0.01 -0.01,0.09 -0.01,0.17 -0.01,0.24 0.01,0.09 0.02,0.17 0.04,0.25l0 0.01c0.02,0.09 0.05,0.17 0.09,0.24 0.04,0.07 0.09,0.14 0.14,0.2 0.06,0.06 0.12,0.12 0.2,0.16 0.07,0.05 0.16,0.09 0.26,0.12 0.2,0.06 0.45,0.1 0.74,0.1 0.25,0 0.52,-0.04 0.78,-0.1 0.27,-0.07 0.54,-0.17 0.82,-0.3l0.06 -0.03c0.16,-0.05 0.33,0 0.38,0.13l0.23 0.65c0.03,0.11 -0.03,0.24 -0.17,0.31l-0.13 0.07 -0.14 0.06c-0.1,0.04 -0.2,0.08 -0.3,0.11 -0.09,0.04 -0.2,0.07 -0.33,0.11l-0.01 0.01c-0.12,0.04 -0.25,0.07 -0.37,0.1l-0.02 0c-0.13,0.03 -0.26,0.06 -0.4,0.08 -0.14,0.02 -0.28,0.03 -0.42,0.04 -0.15,0.01 -0.29,0.02 -0.44,0.02 -0.59,0 -1.09,-0.07 -1.5,-0.21 -0.42,-0.14 -0.75,-0.35 -0.98,-0.64 -0.11,-0.14 -0.2,-0.29 -0.27,-0.46 -0.07,-0.17 -0.12,-0.35 -0.15,-0.54 -0.03,-0.19 -0.04,-0.39 -0.03,-0.62 0.01,-0.22 0.03,-0.45 0.08,-0.68 0.05,-0.24 0.12,-0.48 0.21,-0.7 0.08,-0.22 0.18,-0.44 0.31,-0.64 0.12,-0.21 0.26,-0.41 0.42,-0.59 0.15,-0.18 0.33,-0.36 0.52,-0.53 0.19,-0.16 0.4,-0.31 0.62,-0.43 0.22,-0.13 0.45,-0.23 0.69,-0.32 0.25,-0.08 0.5,-0.14 0.77,-0.18 0.26,-0.05 0.53,-0.07 0.82,-0.07 0.18,0 0.35,0.01 0.51,0.03zm-1.49 2.71c0.09,-0.02 0.17,-0.04 0.25,-0.07 0.08,-0.03 0.16,-0.06 0.24,-0.09l0.01 -0.01c0.09,-0.04 0.17,-0.08 0.25,-0.12 0.08,-0.05 0.16,-0.09 0.22,-0.14 0.06,-0.04 0.11,-0.09 0.15,-0.14l0.01 -0.01c0.04,-0.05 0.08,-0.09 0.1,-0.14l0.01 -0.01c0.02,-0.05 0.04,-0.1 0.05,-0.16 0.03,-0.12 0.03,-0.23 0.01,-0.32 -0.01,-0.08 -0.05,-0.14 -0.1,-0.2 -0.05,-0.05 -0.12,-0.09 -0.2,-0.12 -0.1,-0.03 -0.22,-0.04 -0.36,-0.04 -0.26,0 -0.5,0.04 -0.71,0.13 -0.21,0.08 -0.4,0.21 -0.58,0.38 -0.09,0.09 -0.17,0.18 -0.24,0.28 -0.07,0.09 -0.14,0.2 -0.2,0.3 -0.06,0.1 -0.11,0.22 -0.16,0.33 -0.04,0.1 -0.07,0.19 -0.1,0.29l0.23 -0.01 0.3 -0.02c0.09,0 0.18,-0.01 0.28,-0.02 0.1,-0.01 0.19,-0.03 0.28,-0.04 0.08,-0.01 0.16,-0.02 0.24,-0.04l0.02 -0.01zm-5.16 -2.71c0.16,0.02 0.32,0.05 0.46,0.09 0.13,0.04 0.26,0.08 0.38,0.14 0.12,0.06 0.23,0.13 0.32,0.2 0.1,0.08 0.17,0.17 0.24,0.26 0.06,0.09 0.11,0.19 0.14,0.3 0.07,0.22 0.07,0.47 0.02,0.74 -0.04,0.18 -0.1,0.35 -0.18,0.52 -0.08,0.17 -0.18,0.32 -0.31,0.46 -0.06,0.07 -0.12,0.14 -0.19,0.2 -0.06,0.06 -0.13,0.12 -0.2,0.17 -0.07,0.06 -0.14,0.11 -0.22,0.16 -0.07,0.05 -0.15,0.09 -0.23,0.13 -0.15,0.08 -0.31,0.15 -0.49,0.21l-0.01 0.01c-0.18,0.06 -0.36,0.12 -0.56,0.16l-0.02 0.01c-0.17,0.04 -0.35,0.07 -0.53,0.11 -0.18,0.03 -0.36,0.05 -0.55,0.07 -0.19,0.02 -0.38,0.04 -0.57,0.05 -0.18,0.01 -0.35,0.01 -0.52,0.01 -0.01,0.09 -0.01,0.17 -0.01,0.24 0,0.09 0.01,0.17 0.03,0.25l0.01 0.01c0.02,0.09 0.05,0.17 0.08,0.24 0.04,0.07 0.09,0.14 0.15,0.2 0.05,0.06 0.12,0.12 0.19,0.16 0.08,0.05 0.17,0.09 0.27,0.12 0.2,0.06 0.44,0.1 0.73,0.1 0.26,0 0.52,-0.04 0.79,-0.1 0.26,-0.07 0.54,-0.17 0.82,-0.3l0.05 -0.03c0.17,-0.05 0.34,0 0.38,0.13l0.23 0.65c0.04,0.11 -0.03,0.24 -0.16,0.31l-0.13 0.07 -0.15 0.06c-0.09,0.04 -0.19,0.08 -0.29,0.11 -0.1,0.04 -0.21,0.07 -0.33,0.11l-0.02 0.01c-0.12,0.04 -0.24,0.07 -0.37,0.1l-0.01 0c-0.14,0.03 -0.27,0.06 -0.41,0.08 -0.13,0.02 -0.28,0.03 -0.42,0.04 -0.14,0.01 -0.29,0.02 -0.44,0.02 -0.58,0 -1.08,-0.07 -1.49,-0.21 -0.43,-0.14 -0.75,-0.35 -0.98,-0.64 -0.11,-0.14 -0.2,-0.29 -0.28,-0.46 -0.07,-0.17 -0.12,-0.35 -0.15,-0.54 -0.03,-0.19 -0.04,-0.39 -0.03,-0.62 0.01,-0.22 0.04,-0.45 0.09,-0.68 0.05,-0.24 0.12,-0.48 0.2,-0.7 0.09,-0.22 0.19,-0.44 0.31,-0.64 0.12,-0.21 0.26,-0.41 0.42,-0.59 0.16,-0.18 0.33,-0.36 0.53,-0.53 0.19,-0.16 0.4,-0.31 0.61,-0.43 0.22,-0.13 0.46,-0.23 0.7,-0.32 0.24,-0.08 0.5,-0.14 0.76,-0.18 0.26,-0.05 0.54,-0.07 0.82,-0.07 0.18,0 0.35,0.01 0.52,0.03zm-1.5 2.71c0.09,-0.02 0.18,-0.04 0.26,-0.07 0.08,-0.03 0.16,-0.06 0.23,-0.09l0.02 -0.01c0.08,-0.04 0.17,-0.08 0.25,-0.12 0.08,-0.05 0.15,-0.09 0.21,-0.14 0.06,-0.04 0.11,-0.09 0.16,-0.14l0.01 -0.01c0.04,-0.05 0.07,-0.09 0.1,-0.14l0 -0.01c0.03,-0.05 0.05,-0.1 0.06,-0.16 0.02,-0.12 0.03,-0.23 0.01,-0.32 -0.02,-0.08 -0.05,-0.14 -0.1,-0.2 -0.05,-0.05 -0.12,-0.09 -0.21,-0.12 -0.09,-0.03 -0.21,-0.04 -0.36,-0.04 -0.26,0 -0.49,0.04 -0.7,0.13 -0.21,0.08 -0.41,0.21 -0.58,0.38 -0.09,0.09 -0.17,0.18 -0.24,0.28 -0.08,0.09 -0.15,0.2 -0.21,0.3 -0.06,0.1 -0.11,0.22 -0.16,0.33 -0.03,0.1 -0.07,0.19 -0.1,0.29l0.24 -0.01 0.29 -0.02c0.09,0 0.19,-0.01 0.29,-0.02 0.09,-0.01 0.18,-0.03 0.27,-0.04 0.08,-0.01 0.16,-0.02 0.24,-0.04l0.02 -0.01zm-11.19 3.15l1.64 -8.02c0.03,-0.14 0.19,-0.25 0.35,-0.25l1.22 0c0.17,0 0.29,0.11 0.26,0.25l-0.53 2.56c0.09,-0.05 0.18,-0.1 0.27,-0.14l0.01 0c0.14,-0.07 0.29,-0.12 0.45,-0.16l0.01 -0.01c0.16,-0.04 0.33,-0.07 0.5,-0.09 0.17,-0.03 0.34,-0.04 0.53,-0.04 0.22,0 0.44,0.02 0.64,0.05 0.2,0.04 0.38,0.08 0.55,0.15l0.03 0.01c0.17,0.07 0.32,0.15 0.46,0.25 0.14,0.1 0.26,0.21 0.37,0.34 0.1,0.13 0.19,0.27 0.26,0.42l0.01 0.02c0.06,0.16 0.11,0.33 0.14,0.52 0.03,0.18 0.04,0.38 0.03,0.59 -0.01,0.21 -0.03,0.44 -0.08,0.67 -0.12,0.58 -0.3,1.09 -0.53,1.53l0 0.01c-0.24,0.45 -0.54,0.82 -0.9,1.13l-0.01 0.01c-0.37,0.31 -0.79,0.53 -1.28,0.68 -0.48,0.15 -1.01,0.23 -1.59,0.23 -0.26,0 -0.51,-0.02 -0.78,-0.04 -0.25,-0.03 -0.51,-0.06 -0.77,-0.11l-0.02 -0.01c-0.12,-0.02 -0.25,-0.05 -0.38,-0.08 -0.11,-0.03 -0.22,-0.05 -0.31,-0.08l-0.02 -0.01c-0.07,-0.02 -0.14,-0.04 -0.22,-0.07 -0.06,-0.02 -0.12,-0.05 -0.17,-0.07 -0.11,-0.04 -0.17,-0.13 -0.14,-0.24zm2.61 -3.83l-0.64 3.12c0.07,0.03 0.15,0.06 0.23,0.09 0.09,0.02 0.18,0.05 0.27,0.07 0.1,0.02 0.21,0.03 0.32,0.04 0.1,0.01 0.21,0.02 0.34,0.02 0.51,0 0.93,-0.17 1.25,-0.5 0.35,-0.36 0.61,-0.93 0.77,-1.7 0.07,-0.34 0.09,-0.64 0.08,-0.9 -0.02,-0.24 -0.07,-0.44 -0.17,-0.61 -0.09,-0.16 -0.23,-0.28 -0.39,-0.36 -0.18,-0.08 -0.4,-0.12 -0.66,-0.12 -0.09,0 -0.17,0 -0.24,0.01 -0.08,0.01 -0.15,0.02 -0.22,0.04l-0.03 0.01c-0.07,0.02 -0.14,0.04 -0.21,0.07 -0.07,0.03 -0.13,0.06 -0.19,0.1l-0.02 0.01c-0.07,0.04 -0.13,0.08 -0.19,0.13 -0.05,0.04 -0.1,0.09 -0.14,0.14 -0.04,0.05 -0.07,0.1 -0.1,0.16 -0.03,0.05 -0.05,0.11 -0.06,0.18z"/>
  <path class="fil2" d="M0.68 16.71c-0.14,0 -0.27,-0.02 -0.37,-0.07 -0.1,-0.05 -0.18,-0.12 -0.23,-0.21 -0.05,-0.09 -0.08,-0.2 -0.08,-0.32 0,-0.16 0.04,-0.31 0.11,-0.44 0.07,-0.13 0.17,-0.24 0.31,-0.31 0.13,-0.08 0.29,-0.12 0.46,-0.12 0.12,0 0.22,0.02 0.31,0.05 0.09,0.04 0.16,0.09 0.21,0.16l-0.11 0.1c-0.09,-0.12 -0.23,-0.17 -0.42,-0.17 -0.14,0 -0.27,0.03 -0.38,0.09 -0.11,0.07 -0.19,0.16 -0.25,0.27 -0.06,0.11 -0.09,0.23 -0.09,0.36 0,0.15 0.05,0.26 0.14,0.35 0.09,0.08 0.23,0.13 0.4,0.13 0.19,0 0.34,-0.06 0.46,-0.17l0.09 0.1c-0.07,0.06 -0.15,0.11 -0.24,0.15 -0.1,0.04 -0.21,0.05 -0.32,0.05z"/>
  <path id="1" class="fil2" d="M2.39 16.71c-0.14,0 -0.27,-0.02 -0.37,-0.07 -0.1,-0.05 -0.17,-0.12 -0.23,-0.21 -0.05,-0.09 -0.07,-0.2 -0.07,-0.32 0,-0.16 0.03,-0.3 0.1,-0.44 0.08,-0.13 0.18,-0.24 0.31,-0.31 0.13,-0.08 0.29,-0.12 0.46,-0.12 0.14,0 0.26,0.03 0.36,0.08 0.1,0.05 0.18,0.12 0.23,0.21 0.06,0.09 0.08,0.19 0.08,0.31 0,0.16 -0.03,0.31 -0.11,0.44 -0.07,0.13 -0.17,0.24 -0.3,0.32 -0.14,0.07 -0.29,0.11 -0.46,0.11zm0.01 -0.13c0.14,0 0.26,-0.04 0.37,-0.1 0.11,-0.07 0.19,-0.16 0.25,-0.27 0.06,-0.11 0.09,-0.23 0.09,-0.36 0,-0.15 -0.05,-0.26 -0.14,-0.35 -0.09,-0.08 -0.22,-0.12 -0.4,-0.12 -0.13,0 -0.26,0.03 -0.37,0.09 -0.1,0.07 -0.19,0.16 -0.25,0.27 -0.05,0.11 -0.08,0.23 -0.08,0.36 0,0.15 0.04,0.26 0.14,0.35 0.09,0.08 0.22,0.13 0.39,0.13z"/>
  <polygon id="2" class="fil2" points="5.21,15.25 4.92,16.7 4.79,16.7 4.1,15.5 3.86,16.7 3.71,16.7 4,15.25 4.12,15.25 4.81,16.45 5.05,15.25 "/>
  <polygon id="3" class="fil2" points="6.06,15.38 5.96,15.9 6.71,15.9 6.69,16.03 5.93,16.03 5.83,16.57 6.7,16.57 6.67,16.7 5.65,16.7 5.94,15.25 6.93,15.25 6.9,15.38 "/>
  <path id="4" class="fil2" d="M7.96 16.71c-0.14,0 -0.26,-0.02 -0.36,-0.07 -0.1,-0.05 -0.18,-0.12 -0.23,-0.21 -0.06,-0.09 -0.08,-0.2 -0.08,-0.32 0,-0.16 0.03,-0.31 0.11,-0.44 0.07,-0.13 0.17,-0.24 0.31,-0.31 0.13,-0.08 0.28,-0.12 0.46,-0.12 0.12,0 0.22,0.02 0.31,0.05 0.09,0.04 0.16,0.09 0.2,0.16l-0.1 0.1c-0.1,-0.12 -0.24,-0.17 -0.42,-0.17 -0.15,0 -0.27,0.03 -0.38,0.09 -0.11,0.07 -0.19,0.16 -0.25,0.27 -0.06,0.11 -0.09,0.23 -0.09,0.36 0,0.15 0.05,0.26 0.14,0.35 0.09,0.08 0.22,0.13 0.4,0.13 0.19,0 0.34,-0.06 0.46,-0.17l0.09 0.1c-0.07,0.06 -0.15,0.11 -0.25,0.15 -0.09,0.04 -0.2,0.05 -0.32,0.05z"/>
  <polygon id="5" class="fil2" points="9.56,15.38 9.05,15.38 9.07,15.25 10.25,15.25 10.22,15.38 9.71,15.38 9.44,16.7 9.29,16.7 "/>
  <path id="6" class="fil2" d="M11.38 16.31l-0.81 0 -0.25 0.39 -0.17 0 0.96 -1.45 0.15 0 0.37 1.45 -0.15 0 -0.1 -0.39zm-0.03 -0.12l-0.2 -0.78 -0.5 0.78 0.7 0z"/>
  <polygon id="7" class="fil2" points="13.63,15.25 13.34,16.7 13.21,16.7 12.52,15.5 12.28,16.7 12.13,16.7 12.42,15.25 12.54,15.25 13.24,16.45 13.48,15.25 "/>
  <path id="8" class="fil2" d="M14.36 15.25l0.55 0c0.14,0 0.27,0.03 0.37,0.07 0.1,0.05 0.18,0.12 0.23,0.21 0.06,0.09 0.08,0.19 0.08,0.31 0,0.17 -0.03,0.32 -0.11,0.45 -0.07,0.13 -0.18,0.23 -0.31,0.3 -0.14,0.07 -0.3,0.11 -0.48,0.11l-0.62 0 0.29 -1.45zm0.34 1.32c0.15,0 0.28,-0.03 0.39,-0.09 0.11,-0.06 0.2,-0.15 0.26,-0.26 0.06,-0.11 0.09,-0.23 0.09,-0.37 0,-0.15 -0.05,-0.26 -0.14,-0.34 -0.09,-0.08 -0.23,-0.13 -0.41,-0.13l-0.41 0 -0.23 1.19 0.45 0z"/>
  <path id="9" class="fil2" d="M16.71 16.71c-0.14,0 -0.26,-0.02 -0.36,-0.07 -0.1,-0.05 -0.18,-0.12 -0.23,-0.21 -0.05,-0.09 -0.08,-0.2 -0.08,-0.32 0,-0.16 0.04,-0.3 0.11,-0.44 0.07,-0.13 0.17,-0.24 0.31,-0.31 0.13,-0.08 0.28,-0.12 0.46,-0.12 0.14,0 0.26,0.03 0.36,0.08 0.1,0.05 0.18,0.12 0.23,0.21 0.05,0.09 0.08,0.19 0.08,0.31 0,0.16 -0.04,0.31 -0.11,0.44 -0.07,0.13 -0.17,0.24 -0.31,0.32 -0.13,0.07 -0.28,0.11 -0.46,0.11zm0.02 -0.13c0.14,0 0.26,-0.04 0.37,-0.1 0.11,-0.07 0.19,-0.16 0.25,-0.27 0.06,-0.11 0.09,-0.23 0.09,-0.36 0,-0.15 -0.05,-0.26 -0.14,-0.35 -0.1,-0.08 -0.23,-0.12 -0.4,-0.12 -0.14,0 -0.26,0.03 -0.37,0.09 -0.11,0.07 -0.19,0.16 -0.25,0.27 -0.06,0.11 -0.09,0.23 -0.09,0.36 0,0.15 0.05,0.26 0.14,0.35 0.1,0.08 0.23,0.13 0.4,0.13z"/>
  <path id="10" class="fil2" d="M19.39 15.25c0.16,0 0.29,0.04 0.38,0.11 0.09,0.07 0.13,0.17 0.13,0.3 0,0.19 -0.06,0.33 -0.18,0.43 -0.12,0.1 -0.28,0.15 -0.49,0.15l-0.41 0 -0.09 0.46 -0.15 0 0.29 -1.45 0.52 0zm-0.16 0.86c0.17,0 0.3,-0.04 0.39,-0.11 0.09,-0.07 0.13,-0.18 0.13,-0.32 0,-0.1 -0.03,-0.17 -0.1,-0.22 -0.06,-0.05 -0.16,-0.08 -0.28,-0.08l-0.38 0 -0.14 0.73 0.38 0z"/>
  <path id="11" class="fil2" d="M21.63 15.66c0,0.15 -0.04,0.27 -0.12,0.37 -0.08,0.09 -0.18,0.15 -0.33,0.19l0.28 0.48 -0.17 0 -0.26 -0.46c-0.01,0 -0.04,0 -0.07,0l-0.42 0 -0.09 0.46 -0.15 0 0.29 -1.45 0.52 0c0.17,0 0.29,0.04 0.38,0.11 0.09,0.07 0.14,0.17 0.14,0.3zm-0.67 0.45c0.17,0 0.29,-0.04 0.38,-0.11 0.09,-0.07 0.14,-0.18 0.14,-0.32 0,-0.1 -0.04,-0.17 -0.1,-0.22 -0.07,-0.05 -0.16,-0.08 -0.28,-0.08l-0.38 0 -0.15 0.73 0.39 0z"/>
  <path id="12" class="fil2" d="M22.73 16.71c-0.14,0 -0.26,-0.02 -0.36,-0.07 -0.1,-0.05 -0.18,-0.12 -0.23,-0.21 -0.05,-0.09 -0.08,-0.2 -0.08,-0.32 0,-0.16 0.04,-0.3 0.11,-0.44 0.07,-0.13 0.17,-0.24 0.3,-0.31 0.14,-0.08 0.29,-0.12 0.46,-0.12 0.14,0 0.26,0.03 0.37,0.08 0.1,0.05 0.17,0.12 0.23,0.21 0.05,0.09 0.08,0.19 0.08,0.31 0,0.16 -0.04,0.31 -0.11,0.44 -0.07,0.13 -0.18,0.24 -0.31,0.32 -0.13,0.07 -0.29,0.11 -0.46,0.11zm0.02 -0.13c0.13,0 0.26,-0.04 0.37,-0.1 0.1,-0.07 0.19,-0.16 0.25,-0.27 0.05,-0.11 0.08,-0.23 0.08,-0.36 0,-0.15 -0.04,-0.26 -0.14,-0.35 -0.09,-0.08 -0.22,-0.12 -0.39,-0.12 -0.14,0 -0.26,0.03 -0.37,0.09 -0.11,0.07 -0.19,0.16 -0.25,0.27 -0.06,0.11 -0.09,0.23 -0.09,0.36 0,0.15 0.05,0.26 0.14,0.35 0.09,0.08 0.22,0.13 0.4,0.13z"/>
  <polygon id="13" class="fil2" points="24.47,15.38 24.35,15.95 25.1,15.95 25.08,16.09 24.32,16.09 24.2,16.7 24.05,16.7 24.34,15.25 25.33,15.25 25.31,15.38 "/>
  <polygon id="14" class="fil2" points="25.91,15.25 26.06,15.25 25.77,16.7 25.62,16.7 "/>
  <path id="15" class="fil2" d="M26.93 16.71c-0.11,0 -0.21,-0.01 -0.31,-0.05 -0.1,-0.03 -0.17,-0.08 -0.22,-0.13l0.07 -0.12c0.05,0.05 0.12,0.09 0.21,0.13 0.08,0.03 0.17,0.04 0.26,0.04 0.13,0 0.23,-0.02 0.31,-0.07 0.08,-0.05 0.12,-0.12 0.12,-0.21 0,-0.05 -0.02,-0.09 -0.05,-0.12 -0.03,-0.03 -0.06,-0.06 -0.11,-0.07 -0.04,-0.02 -0.1,-0.04 -0.18,-0.07 -0.09,-0.02 -0.16,-0.05 -0.21,-0.07 -0.06,-0.02 -0.11,-0.06 -0.15,-0.11 -0.04,-0.05 -0.06,-0.11 -0.06,-0.18 0,-0.09 0.03,-0.17 0.08,-0.24 0.05,-0.06 0.11,-0.11 0.2,-0.15 0.09,-0.03 0.19,-0.05 0.3,-0.05 0.09,0 0.17,0.01 0.25,0.03 0.08,0.02 0.15,0.05 0.2,0.09l-0.06 0.13c-0.05,-0.04 -0.11,-0.07 -0.18,-0.09 -0.07,-0.02 -0.14,-0.03 -0.22,-0.03 -0.12,0 -0.22,0.03 -0.3,0.08 -0.08,0.05 -0.12,0.12 -0.12,0.21 0,0.05 0.02,0.09 0.05,0.12 0.03,0.04 0.07,0.06 0.11,0.08 0.05,0.02 0.11,0.04 0.18,0.06 0.09,0.03 0.16,0.05 0.22,0.08 0.05,0.02 0.1,0.05 0.14,0.1 0.04,0.04 0.06,0.1 0.06,0.18 0,0.09 -0.03,0.17 -0.08,0.23 -0.05,0.07 -0.12,0.12 -0.21,0.15 -0.09,0.04 -0.19,0.05 -0.3,0.05z"/>
  <path id="16" class="fil2" d="M28.46 16.71c-0.11,0 -0.21,-0.01 -0.31,-0.05 -0.09,-0.03 -0.17,-0.08 -0.22,-0.13l0.08 -0.12c0.04,0.05 0.11,0.09 0.2,0.13 0.08,0.03 0.17,0.04 0.26,0.04 0.13,0 0.23,-0.02 0.31,-0.07 0.08,-0.05 0.12,-0.12 0.12,-0.21 0,-0.05 -0.02,-0.09 -0.04,-0.12 -0.03,-0.03 -0.07,-0.06 -0.11,-0.07 -0.05,-0.02 -0.11,-0.04 -0.18,-0.07 -0.09,-0.02 -0.17,-0.05 -0.22,-0.07 -0.06,-0.02 -0.11,-0.06 -0.15,-0.11 -0.04,-0.05 -0.05,-0.11 -0.05,-0.18 0,-0.09 0.02,-0.17 0.07,-0.24 0.05,-0.06 0.12,-0.11 0.2,-0.15 0.09,-0.03 0.19,-0.05 0.3,-0.05 0.09,0 0.17,0.01 0.25,0.03 0.08,0.02 0.15,0.05 0.2,0.09l-0.06 0.13c-0.05,-0.04 -0.11,-0.07 -0.18,-0.09 -0.07,-0.02 -0.14,-0.03 -0.21,-0.03 -0.13,0 -0.23,0.03 -0.31,0.08 -0.08,0.05 -0.12,0.12 -0.12,0.21 0,0.05 0.02,0.09 0.05,0.12 0.03,0.04 0.07,0.06 0.11,0.08 0.05,0.02 0.11,0.04 0.18,0.06 0.09,0.03 0.17,0.05 0.22,0.08 0.06,0.02 0.1,0.05 0.14,0.1 0.04,0.04 0.06,0.1 0.06,0.18 0,0.09 -0.03,0.17 -0.08,0.23 -0.05,0.07 -0.12,0.12 -0.2,0.15 -0.09,0.04 -0.2,0.05 -0.31,0.05z"/>
  <polygon id="17" class="fil2" points="29.86,15.25 30.01,15.25 29.72,16.7 29.57,16.7 "/>
  <path id="18" class="fil2" d="M31.13 16.71c-0.14,0 -0.27,-0.02 -0.37,-0.07 -0.1,-0.05 -0.17,-0.12 -0.23,-0.21 -0.05,-0.09 -0.07,-0.2 -0.07,-0.32 0,-0.16 0.03,-0.3 0.1,-0.44 0.07,-0.13 0.18,-0.24 0.31,-0.31 0.13,-0.08 0.28,-0.12 0.46,-0.12 0.14,0 0.26,0.03 0.36,0.08 0.1,0.05 0.18,0.12 0.23,0.21 0.05,0.09 0.08,0.19 0.08,0.31 0,0.16 -0.03,0.31 -0.11,0.44 -0.07,0.13 -0.17,0.24 -0.3,0.32 -0.14,0.07 -0.29,0.11 -0.46,0.11zm0.01 -0.13c0.14,0 0.26,-0.04 0.37,-0.1 0.11,-0.07 0.19,-0.16 0.25,-0.27 0.06,-0.11 0.09,-0.23 0.09,-0.36 0,-0.15 -0.05,-0.26 -0.14,-0.35 -0.09,-0.08 -0.22,-0.12 -0.4,-0.12 -0.14,0 -0.26,0.03 -0.37,0.09 -0.1,0.07 -0.19,0.16 -0.25,0.27 -0.05,0.11 -0.08,0.23 -0.08,0.36 0,0.15 0.04,0.26 0.14,0.35 0.09,0.08 0.22,0.13 0.39,0.13z"/>
  <polygon id="19" class="fil2" points="33.94,15.25 33.66,16.7 33.53,16.7 32.84,15.5 32.6,16.7 32.45,16.7 32.74,15.25 32.86,15.25 33.55,16.45 33.79,15.25 "/>
  <path id="20" class="fil2" d="M35.38 16.31l-0.81 0 -0.25 0.39 -0.16 0 0.95 -1.45 0.15 0 0.37 1.45 -0.15 0 -0.1 -0.39zm-0.03 -0.12l-0.19 -0.78 -0.51 0.78 0.7 0z"/>
  <polygon id="21" class="fil2" points="36.42,15.25 36.57,15.25 36.28,16.7 36.13,16.7 "/>
  <path id="22" class="fil2" d="M37.44 16.71c-0.11,0 -0.21,-0.01 -0.31,-0.05 -0.1,-0.03 -0.17,-0.08 -0.22,-0.13l0.08 -0.12c0.04,0.05 0.11,0.09 0.2,0.13 0.08,0.03 0.17,0.04 0.26,0.04 0.13,0 0.23,-0.02 0.31,-0.07 0.08,-0.05 0.12,-0.12 0.12,-0.21 0,-0.05 -0.02,-0.09 -0.05,-0.12 -0.02,-0.03 -0.06,-0.06 -0.11,-0.07 -0.04,-0.02 -0.1,-0.04 -0.18,-0.07 -0.09,-0.02 -0.16,-0.05 -0.21,-0.07 -0.06,-0.02 -0.11,-0.06 -0.15,-0.11 -0.04,-0.05 -0.06,-0.11 -0.06,-0.18 0,-0.09 0.03,-0.17 0.08,-0.24 0.05,-0.06 0.12,-0.11 0.2,-0.15 0.09,-0.03 0.19,-0.05 0.3,-0.05 0.09,0 0.17,0.01 0.25,0.03 0.08,0.02 0.15,0.05 0.2,0.09l-0.06 0.13c-0.05,-0.04 -0.11,-0.07 -0.18,-0.09 -0.07,-0.02 -0.14,-0.03 -0.21,-0.03 -0.13,0 -0.23,0.03 -0.31,0.08 -0.08,0.05 -0.12,0.12 -0.12,0.21 0,0.05 0.02,0.09 0.05,0.12 0.03,0.04 0.07,0.06 0.11,0.08 0.05,0.02 0.11,0.04 0.18,0.06 0.09,0.03 0.16,0.05 0.22,0.08 0.06,0.02 0.1,0.05 0.14,0.1 0.04,0.04 0.06,0.1 0.06,0.18 0,0.09 -0.03,0.17 -0.08,0.23 -0.05,0.07 -0.12,0.12 -0.21,0.15 -0.08,0.04 -0.19,0.05 -0.3,0.05z"/>
  <path class="fil3" d="M40.86 12.1c0,0 -0.21,1.13 -0.76,1.2 -0.55,0.07 -0.04,0.55 0.95,-0.11 1,-0.66 -0.19,-1.09 -0.19,-1.09z"/>
  <path class="fil0" d="M41.92 2.76c0,0 1.6,3.52 -0.64,7.07 -0.64,1.02 -0.53,1.92 -0.37,2.47l0 0 0.01 0 0 0.02c0.01,0.05 0.03,0.09 0.05,0.14l0 0 0 0c0.02,0.05 0.04,0.09 0.06,0.13 0.18,0.33 0.48,0.6 0.84,0.8 0.56,0.32 1.25,0.46 1.78,0.43 0.57,-0.03 1.13,-0.22 1.62,-0.54 0.48,-0.31 0.89,-0.75 1.19,-1.29 0.18,-0.33 0.29,-0.69 0.34,-1.06 0.05,-0.36 0.03,-0.73 -0.06,-1.07 -0.11,-0.39 -0.35,-0.75 -0.66,-1.03 -0.31,-0.27 -0.68,-0.46 -1.08,-0.51 -0.1,-0.01 -0.19,-0.02 -0.29,-0.03l0 0 0 0c-0.33,-0.02 -0.63,-0.16 -0.38,-0.67 0.93,-1.88 2.48,-5.21 1.93,-7.23 -0.14,-0.49 -0.66,-0.48 -1.29,-0.19 -0.41,0.19 -1.33,0.66 -2.05,1.06 -0.63,0.34 -1.42,0.74 -1,1.5zm2.08 9.35c-0.38,0.11 -0.8,0.1 -1.17,-0.11 -0.15,-0.08 -0.25,-0.19 -0.32,-0.31 -0.08,-0.15 -0.1,-0.31 -0.09,-0.47 0.02,-0.16 0.07,-0.32 0.16,-0.47 0.12,-0.22 0.32,-0.41 0.53,-0.53 0.21,-0.12 0.45,-0.19 0.69,-0.22 0.26,-0.04 0.52,-0.03 0.75,0.02 0.19,0.04 0.34,0.1 0.46,0.19 0.13,0.09 0.22,0.21 0.27,0.34 0.04,0.14 0.05,0.28 0.02,0.42 -0.03,0.14 -0.1,0.28 -0.19,0.41 -0.22,0.3 -0.64,0.6 -1.11,0.73z"/>
  <path class="fil2" d="M41.26 8.68c0.95,-2.42 0.68,-4.79 -0.94,-6.57 -0.79,-0.88 -1.96,-1.52 -2.86,-0.93 -1.13,0.74 -1.06,2.07 -0.09,2.91 1.57,1.35 3.56,1.78 3.89,4.59z"/>
  <path class="fil2" d="M44 12.11c-0.38,0.11 -0.8,0.1 -1.17,-0.11 -0.15,-0.08 -0.25,-0.19 -0.32,-0.31 -0.08,-0.15 -0.1,-0.31 -0.09,-0.47 0.02,-0.16 0.07,-0.32 0.16,-0.47 0.12,-0.22 0.32,-0.41 0.53,-0.53 0.21,-0.12 0.45,-0.19 0.69,-0.22 0.26,-0.04 0.52,-0.03 0.75,0.02 0.19,0.04 0.34,0.1 0.46,0.19 0.13,0.09 0.22,0.21 0.27,0.34 0.04,0.14 0.05,0.28 0.02,0.42 -0.03,0.14 -0.1,0.28 -0.19,0.41 -0.22,0.3 -0.64,0.6 -1.11,0.73z"/>
 </g>
</svg>
