<?xml version="1.0" encoding="UTF-8"?>
<!DOCTYPE svg PUBLIC "-//W3C//DTD SVG 1.1//EN" "http://www.w3.org/Graphics/SVG/1.1/DTD/svg11.dtd">
<!-- Creator: CorelDRAW 2020 (64 Bit) -->
<svg xmlns="http://www.w3.org/2000/svg" xml:space="preserve" width="373px" height="112px" version="1.1" style="shape-rendering:geometricPrecision; text-rendering:geometricPrecision; image-rendering:optimizeQuality; fill-rule:evenodd; clip-rule:evenodd"
viewBox="0 0 3.6 1.07"
 xmlns:xlink="http://www.w3.org/1999/xlink"
 xmlns:xodm="http://www.corel.com/coreldraw/odm/2003">
 <defs>
  <style type="text/css">
   <![CDATA[
    .fil2 {fill:white}
    .fil0 {fill:#FFBB00;fill-rule:nonzero}
    .fil1 {fill:white;fill-rule:nonzero}
   ]]>
  </style>
 </defs>
 <g id="Camada_x0020_1">
  <metadata id="CorelCorpID_0Corel-Layer"/>
  <path class="fil0" d="M1.07 0.58l0.08 0c0.01,0 0.02,0.01 0.02,0.02l-0.01 0.03 0 0c0.01,0 0.02,-0.01 0.02,-0.01 0.01,-0.01 0.02,-0.01 0.02,-0.02 0.01,0 0.02,-0.01 0.03,-0.01 0,-0.01 0.01,-0.01 0.02,-0.01 0.01,-0.01 0.02,-0.01 0.03,-0.01 0.01,0 0.01,0 0.02,-0.01 0.01,0 0.02,0 0.03,0 0.02,0 0.03,0 0.05,0.01 0.02,0 0.03,0 0.04,0.01 0.01,0 0.02,0.01 0.02,0.02l-0.02 0.05c0,0.01 0,0.01 0,0.01 0,0.01 -0.02,0.02 -0.03,0.01 -0.01,0 -0.03,-0.01 -0.05,-0.01 -0.01,0 -0.03,0 -0.05,0 -0.02,0 -0.04,0.01 -0.05,0.01 -0.02,0.01 -0.03,0.01 -0.04,0.02 -0.01,0.01 -0.01,0.01 -0.02,0.02l0 0c0,0 -0.01,0.01 -0.01,0.01 0,0.01 -0.01,0.01 -0.01,0.02 0,0.01 0,0.01 0,0.02l-0.06 0.28c0,0.01 -0.02,0.02 -0.03,0.02l-0.1 0c-0.01,0 -0.02,-0.01 -0.02,-0.02l0.09 -0.44c0.01,-0.01 0.02,-0.02 0.03,-0.02zm-0.45 0.4c0.08,0 0.13,-0.05 0.15,-0.16 0.01,-0.03 0.01,-0.05 0.01,-0.07 0,-0.02 0,-0.04 -0.01,-0.05 0,-0.01 -0.01,-0.02 -0.01,-0.02 -0.01,-0.01 -0.01,-0.01 -0.02,-0.01 0,-0.01 -0.01,-0.01 -0.02,-0.01 -0.01,0 -0.02,0 -0.03,0 -0.02,0 -0.04,0 -0.05,0.01 -0.02,0 -0.03,0.01 -0.04,0.02l0 0c-0.01,0.01 -0.02,0.02 -0.02,0.03 -0.01,0 -0.01,0.01 -0.02,0.02 0,0.01 0,0.02 -0.01,0.03 0,0.01 0,0.02 -0.01,0.03 0,0.03 0,0.05 0,0.06 -0.01,0.02 -0.01,0.04 0,0.05 0,0.02 0,0.03 0.01,0.04 0,0.01 0.01,0.01 0.02,0.02 0,0 0,0 0.01,0 0,0.01 0.01,0.01 0.01,0.01l0 0c0.01,0 0.01,0 0.02,0l0 0c0,0 0.01,0 0.01,0zm-0.22 -0.2c0.01,-0.01 0.01,-0.02 0.01,-0.03 0.01,-0.01 0.01,-0.02 0.02,-0.03 0,-0.01 0.01,-0.02 0.01,-0.02 0.01,-0.01 0.02,-0.02 0.02,-0.03 0.01,-0.01 0.02,-0.01 0.02,-0.02 0.01,-0.01 0.02,-0.01 0.02,-0.02 0.01,-0.01 0.02,-0.01 0.03,-0.02l0 0c0.01,0 0.03,-0.01 0.04,-0.02 0.02,0 0.04,-0.01 0.05,-0.01 0.02,-0.01 0.03,-0.01 0.05,-0.01 0.02,-0.01 0.03,-0.01 0.05,-0.01 0.01,0 0.02,0 0.03,0l0 0c0.01,0 0.02,0.01 0.03,0.01 0.01,0 0.02,0 0.03,0 0,0.01 0.01,0.01 0.02,0.01l0 0c0.01,0.01 0.03,0.01 0.04,0.02 0.01,0.01 0.02,0.02 0.03,0.03 0,0 0,0 0.01,0.01l0 0c0,0 0,0.01 0,0.02 0.01,0 0.01,0.01 0.01,0.01 0,0.01 0.01,0.02 0.01,0.03 0,0 0,0.01 0,0.02 0,0.01 0,0.02 0,0.03l0 0c0,0.01 0,0.02 0,0.03 0,0.01 0,0.02 -0.01,0.03 0,0.02 -0.01,0.04 -0.01,0.06 -0.01,0.02 -0.02,0.03 -0.03,0.05 -0.01,0.02 -0.02,0.03 -0.03,0.05 -0.02,0.01 -0.03,0.02 -0.04,0.04 -0.02,0.01 -0.03,0.02 -0.05,0.03 -0.02,0 -0.03,0.01 -0.05,0.02 -0.02,0 -0.04,0.01 -0.06,0.01 -0.02,0 -0.03,0 -0.05,0 -0.04,0 -0.08,0 -0.11,-0.01 -0.03,-0.01 -0.05,-0.03 -0.07,-0.05 -0.01,-0.01 -0.01,-0.02 -0.02,-0.04 -0.01,-0.01 -0.01,-0.03 -0.01,-0.04 0,-0.02 0,-0.03 0,-0.05 0,-0.02 0,-0.04 0,-0.06 0.01,-0.01 0.01,-0.02 0.01,-0.04zm-0.38 0.26l0.07 -0.37 -0.07 0c-0.01,0 -0.02,-0.01 -0.02,-0.02l0.01 -0.05c0,-0.02 0.02,-0.02 0.03,-0.02l0.07 0 0.01 -0.03c0,-0.02 0,-0.03 0.01,-0.05l0 0c0,-0.01 0.01,-0.02 0.02,-0.04 0,-0.01 0.01,-0.02 0.02,-0.03 0.01,-0.01 0.02,-0.01 0.03,-0.02l0 0c0.01,-0.01 0.02,-0.01 0.03,-0.02 0.01,0 0.02,-0.01 0.03,-0.01 0.02,0 0.03,-0.01 0.04,-0.01 0.02,0 0.03,0 0.05,0 0.01,0 0.03,0 0.04,0 0.01,0 0.03,0 0.04,0.01 0.01,0 0.02,0 0.03,0.01 0.01,0 0.02,0 0.03,0.01 0.01,0 0.01,0.01 0.01,0.02l-0.03 0.05c-0.01,0.01 -0.03,0.01 -0.04,0.01 0,0 -0.01,0 -0.01,-0.01 -0.01,0 -0.01,0 -0.02,0 -0.01,0 -0.01,0 -0.02,0 -0.01,-0.01 -0.02,-0.01 -0.03,-0.01 0,0 -0.01,0 -0.02,0l0 0c0,0.01 -0.01,0.01 -0.01,0.01 -0.01,0 -0.01,0 -0.02,0 0,0.01 -0.01,0.01 -0.01,0.01l0 0c0,0 0,0.01 -0.01,0.01 0,0 0,0.01 -0.01,0.01 0,0.01 0,0.01 0,0.02l0 0c0,0 -0.01,0.01 -0.01,0.02l0 0.04 0.14 0c0.01,0 0.02,0 0.02,0.02l-0.01 0.05c-0.01,0.01 -0.02,0.02 -0.03,0.02l-0.14 0 -0.08 0.37c0,0.01 -0.01,0.02 -0.03,0.02l-0.09 0c-0.02,0 -0.03,-0.01 -0.02,-0.02z"/>
  <path class="fil1" d="M2.92 0.57c0.01,0 0.02,0 0.03,0 0.01,0 0.02,0.01 0.03,0.01 0.01,0.01 0.02,0.01 0.03,0.02 0,0 0.01,0.01 0.01,0.02 0.01,0.01 0.01,0.01 0.02,0.02 0,0.02 0,0.04 0,0.06 -0.01,0.01 -0.01,0.03 -0.02,0.04 0,0.01 -0.01,0.02 -0.02,0.03 -0.01,0.01 -0.01,0.01 -0.02,0.02 0,0 -0.01,0.01 -0.01,0.01 -0.01,0.01 -0.01,0.01 -0.02,0.01 0,0.01 -0.01,0.01 -0.02,0.02 -0.01,0 -0.02,0.01 -0.03,0.01l0 0c-0.02,0.01 -0.03,0.01 -0.05,0.01l0 0c-0.01,0.01 -0.03,0.01 -0.04,0.01 -0.01,0.01 -0.03,0.01 -0.04,0.01 -0.02,0 -0.03,0 -0.05,0 -0.01,0 -0.02,0 -0.04,0 0,0.01 0,0.02 0,0.02 0,0.01 0,0.02 0,0.02l0 0c0.01,0.01 0.01,0.01 0.01,0.02 0,0.01 0.01,0.01 0.01,0.02 0.01,0 0.01,0.01 0.02,0.01 0,0 0.01,0.01 0.02,0.01 0.01,0 0.03,0.01 0.06,0.01 0.01,0 0.04,-0.01 0.06,-0.01 0.02,-0.01 0.04,-0.02 0.06,-0.03l0 0c0.02,0 0.03,0 0.03,0.01l0.02 0.05c0,0.01 0,0.02 -0.01,0.03l-0.01 0 -0.01 0.01c-0.01,0 -0.02,0 -0.03,0.01 0,0 -0.01,0 -0.02,0l0 0c-0.01,0.01 -0.02,0.01 -0.03,0.01l0 0c-0.01,0 -0.02,0.01 -0.03,0.01 -0.01,0 -0.03,0 -0.04,0 -0.01,0 -0.02,0 -0.03,0 -0.05,0 -0.08,0 -0.12,-0.01 -0.03,-0.01 -0.05,-0.03 -0.07,-0.05 -0.01,-0.01 -0.02,-0.03 -0.02,-0.04 -0.01,-0.01 -0.01,-0.03 -0.01,-0.04 -0.01,-0.01 -0.01,-0.03 -0.01,-0.05 0,-0.01 0.01,-0.03 0.01,-0.05 0,-0.02 0.01,-0.04 0.02,-0.05 0,-0.02 0.01,-0.04 0.02,-0.05 0.01,-0.02 0.02,-0.04 0.03,-0.05 0.01,-0.01 0.03,-0.03 0.04,-0.04 0.02,-0.01 0.03,-0.02 0.05,-0.03 0.02,-0.01 0.04,-0.02 0.05,-0.03 0.02,0 0.04,-0.01 0.06,-0.01 0.02,-0.01 0.04,-0.01 0.07,-0.01 0.01,0 0.02,0 0.04,0.01zm-0.12 0.2c0.01,0 0.01,0 0.02,0 0.01,0 0.01,-0.01 0.02,-0.01l0 0c0.01,0 0.01,0 0.02,-0.01 0.01,0 0.01,-0.01 0.02,-0.01 0,0 0,-0.01 0.01,-0.01l0 0c0,0 0,-0.01 0.01,-0.01l0 0c0,-0.01 0,-0.01 0,-0.01 0,-0.01 0,-0.02 0,-0.03 0,-0.01 0,-0.01 -0.01,-0.01 0,-0.01 -0.01,-0.01 -0.01,-0.01 -0.01,-0.01 -0.02,-0.01 -0.03,-0.01 -0.02,0 -0.04,0.01 -0.05,0.01 -0.02,0.01 -0.04,0.02 -0.05,0.03 -0.01,0.01 -0.01,0.02 -0.02,0.02 0,0.01 -0.01,0.02 -0.01,0.03 -0.01,0.01 -0.01,0.01 -0.02,0.02 0,0.01 0,0.02 0,0.02l0.01 0 0.03 0c0,0 0.01,0 0.02,0 0.01,0 0.01,0 0.02,0 0.01,0 0.01,0 0.02,-0.01l0 0zm-0.4 -0.2c0.02,0 0.03,0 0.04,0 0.01,0 0.02,0.01 0.03,0.01 0.01,0.01 0.01,0.01 0.02,0.02 0.01,0 0.02,0.01 0.02,0.02 0.01,0.01 0.01,0.01 0.01,0.02 0.01,0.02 0.01,0.04 0,0.06 0,0.01 0,0.03 -0.01,0.04 -0.01,0.01 -0.02,0.02 -0.02,0.03 -0.01,0.01 -0.01,0.01 -0.02,0.02 0,0 -0.01,0.01 -0.01,0.01 -0.01,0.01 -0.02,0.01 -0.02,0.01 -0.01,0.01 -0.01,0.01 -0.02,0.02 -0.01,0 -0.02,0.01 -0.04,0.01l0 0c-0.01,0.01 -0.03,0.01 -0.04,0.01l0 0c-0.02,0.01 -0.03,0.01 -0.04,0.01 -0.02,0.01 -0.03,0.01 -0.05,0.01 -0.01,0 -0.03,0 -0.04,0 -0.01,0 -0.03,0 -0.04,0 0,0.01 0,0.02 0,0.02 0,0.01 0,0.02 0,0.02l0 0c0,0.01 0.01,0.01 0.01,0.02 0,0.01 0,0.01 0.01,0.02 0,0 0.01,0.01 0.01,0.01 0.01,0 0.02,0.01 0.02,0.01 0.02,0 0.04,0.01 0.06,0.01 0.02,0 0.04,-0.01 0.06,-0.01 0.02,-0.01 0.04,-0.02 0.07,-0.03l0 0c0.01,0 0.03,0 0.03,0.01l0.02 0.05c0,0.01 -0.01,0.02 -0.02,0.03l-0.01 0 -0.01 0.01c0,0 -0.01,0 -0.02,0.01 -0.01,0 -0.02,0 -0.03,0l0 0c-0.01,0.01 -0.02,0.01 -0.03,0.01l0 0c-0.01,0 -0.02,0.01 -0.03,0.01 -0.01,0 -0.02,0 -0.03,0 -0.01,0 -0.02,0 -0.03,0 -0.05,0 -0.09,0 -0.12,-0.01 -0.03,-0.01 -0.06,-0.03 -0.07,-0.05 -0.01,-0.01 -0.02,-0.03 -0.03,-0.04 0,-0.01 -0.01,-0.03 -0.01,-0.04 0,-0.01 0,-0.03 0,-0.05 0,-0.01 0,-0.03 0.01,-0.05 0,-0.02 0.01,-0.04 0.01,-0.05 0.01,-0.02 0.02,-0.04 0.03,-0.05 0.01,-0.02 0.02,-0.04 0.03,-0.05 0.01,-0.01 0.02,-0.03 0.04,-0.04 0.01,-0.01 0.03,-0.02 0.05,-0.03 0.01,-0.01 0.03,-0.02 0.05,-0.03 0.02,0 0.04,-0.01 0.06,-0.01 0.02,-0.01 0.04,-0.01 0.06,-0.01 0.02,0 0.03,0 0.04,0.01zm-0.11 0.2c0,0 0.01,0 0.02,0 0,0 0.01,-0.01 0.01,-0.01l0.01 0c0,0 0.01,0 0.02,-0.01 0,0 0.01,-0.01 0.01,-0.01 0.01,0 0.01,-0.01 0.01,-0.01l0 0c0.01,0 0.01,-0.01 0.01,-0.01l0 0c0,-0.01 0.01,-0.01 0.01,-0.01 0,-0.01 0,-0.02 0,-0.03 0,-0.01 -0.01,-0.01 -0.01,-0.01 0,-0.01 -0.01,-0.01 -0.02,-0.01 0,-0.01 -0.01,-0.01 -0.02,-0.01 -0.02,0 -0.04,0.01 -0.06,0.01 -0.01,0.01 -0.03,0.02 -0.04,0.03 -0.01,0.01 -0.02,0.02 -0.02,0.02 -0.01,0.01 -0.01,0.02 -0.02,0.03 0,0.01 -0.01,0.01 -0.01,0.02 0,0.01 0,0.02 -0.01,0.02l0.02 0 0.02 0c0.01,0 0.02,0 0.03,0 0,0 0.01,0 0.02,0 0,0 0.01,0 0.02,-0.01l0 0zm-0.87 0.25l0.13 -0.62c0,-0.01 0.01,-0.02 0.03,-0.02l0.09 0c0.01,0 0.02,0.01 0.02,0.02l-0.04 0.2c0.01,-0.01 0.01,-0.01 0.02,-0.01l0 -0.01c0.01,0 0.02,0 0.04,-0.01l0 0c0.01,0 0.02,0 0.04,-0.01 0.01,0 0.02,0 0.04,0 0.01,0 0.03,0 0.05,0.01 0.01,0 0.03,0 0.04,0.01l0 0c0.01,0 0.03,0.01 0.04,0.02 0.01,0 0.02,0.01 0.02,0.02 0.01,0.01 0.02,0.02 0.02,0.04l0.01 0c0,0.01 0,0.02 0.01,0.04 0,0.01 0,0.03 0,0.04 0,0.02 0,0.04 -0.01,0.05 -0.01,0.05 -0.02,0.09 -0.04,0.12l0 0c-0.02,0.04 -0.04,0.07 -0.07,0.09l0 0c-0.03,0.03 -0.06,0.04 -0.1,0.05 -0.03,0.02 -0.08,0.02 -0.12,0.02 -0.02,0 -0.04,0 -0.06,0 -0.02,0 -0.04,-0.01 -0.06,-0.01l0 0c-0.01,0 -0.02,0 -0.03,-0.01 -0.01,0 -0.02,0 -0.02,0l-0.01 0c0,0 -0.01,-0.01 -0.01,-0.01 -0.01,0 -0.01,0 -0.02,0 0,-0.01 -0.01,-0.01 -0.01,-0.02zm0.2 -0.3l-0.04 0.24c0,0 0.01,0.01 0.01,0.01 0.01,0 0.02,0 0.02,0 0.01,0.01 0.02,0.01 0.03,0.01 0.01,0 0.02,0 0.02,0 0.04,0 0.08,-0.01 0.1,-0.04 0.03,-0.03 0.05,-0.07 0.06,-0.13 0.01,-0.03 0.01,-0.05 0.01,-0.07 0,-0.02 -0.01,-0.03 -0.02,-0.05 0,-0.01 -0.01,-0.02 -0.03,-0.02 -0.01,-0.01 -0.03,-0.01 -0.05,-0.01 0,0 -0.01,0 -0.02,0 0,0 -0.01,0 -0.01,0l0 0c-0.01,0 -0.02,0 -0.02,0.01 -0.01,0 -0.01,0 -0.02,0l0 0c0,0.01 -0.01,0.01 -0.01,0.01 -0.01,0.01 -0.01,0.01 -0.01,0.02 -0.01,0 -0.01,0 -0.01,0.01 0,0 0,0.01 -0.01,0.01z"/>
  <path class="fil2" d="M3.13 0.93c0,0 -0.01,0.09 -0.05,0.1 -0.05,0 -0.01,0.04 0.07,-0.01 0.08,-0.05 -0.02,-0.09 -0.02,-0.09z"/>
  <path class="fil0" d="M3.22 0.21c0,0 0.12,0.27 -0.05,0.55 -0.05,0.08 -0.04,0.15 -0.03,0.19l0 0 0 0 0 0c0,0 0,0.01 0,0.01l0 0 0 0c0,0.01 0.01,0.01 0.01,0.01 0.01,0.03 0.04,0.05 0.06,0.06 0.05,0.03 0.1,0.04 0.14,0.04 0.04,-0.01 0.09,-0.02 0.13,-0.05 0.03,-0.02 0.06,-0.05 0.09,-0.09 0.01,-0.03 0.02,-0.06 0.02,-0.09 0.01,-0.02 0.01,-0.05 0,-0.08 -0.01,-0.03 -0.03,-0.06 -0.05,-0.08 -0.03,-0.02 -0.06,-0.03 -0.09,-0.04 0,0 -0.01,0 -0.02,0l0 0 0 0c-0.02,0 -0.05,-0.01 -0.03,-0.05 0.07,-0.15 0.19,-0.4 0.15,-0.56 -0.01,-0.04 -0.05,-0.04 -0.1,-0.01 -0.03,0.01 -0.1,0.05 -0.16,0.08 -0.04,0.02 -0.11,0.05 -0.07,0.11zm0.16 0.72c-0.03,0.01 -0.06,0.01 -0.09,0 -0.01,-0.01 -0.02,-0.02 -0.03,-0.03 0,-0.01 -0.01,-0.02 0,-0.03 0,-0.02 0,-0.03 0.01,-0.04 0.01,-0.02 0.02,-0.03 0.04,-0.04 0.01,-0.01 0.03,-0.02 0.05,-0.02 0.02,0 0.04,0 0.06,0 0.01,0.01 0.03,0.01 0.04,0.02 0.01,0.01 0.01,0.01 0.02,0.02 0,0.01 0,0.03 0,0.04 0,0.01 -0.01,0.02 -0.02,0.03 -0.01,0.02 -0.05,0.04 -0.08,0.05z"/>
  <path class="fil1" d="M3.17 0.67c0.07,-0.19 0.05,-0.37 -0.08,-0.51 -0.06,-0.06 -0.15,-0.11 -0.22,-0.07 -0.09,0.06 -0.08,0.16 0,0.23 0.12,0.1 0.27,0.13 0.3,0.35z"/>
 </g>
</svg>
