<?xml version="1.0" encoding="UTF-8" standalone="no"?>
<!-- Created with Inkscape (http://www.inkscape.org/) -->

<svg
   xmlns:dc="http://purl.org/dc/elements/1.1/"
   xmlns:cc="http://creativecommons.org/ns#"
   xmlns:rdf="http://www.w3.org/1999/02/22-rdf-syntax-ns#"
   xmlns:svg="http://www.w3.org/2000/svg"
   xmlns="http://www.w3.org/2000/svg"
   xmlns:sodipodi="http://sodipodi.sourceforge.net/DTD/sodipodi-0.dtd"
   xmlns:inkscape="http://www.inkscape.org/namespaces/inkscape"
   width="132.3383mm"
   height="126.36219mm"
   viewBox="0 0 132.3383 126.36219"
   version="1.1"
   id="svg8"
   inkscape:version="0.92.4 (5da689c313, 2019-01-14)"
   sodipodi:docname="star-outline.svg">
  <defs
     id="defs2" />
  <sodipodi:namedview
     id="base"
     pagecolor="#ffffff"
     bordercolor="#666666"
     borderopacity="1.0"
     inkscape:pageopacity="0.0"
     inkscape:pageshadow="2"
     inkscape:zoom="1.1894531"
     inkscape:cx="387.36017"
     inkscape:cy="164.89041"
     inkscape:document-units="mm"
     inkscape:current-layer="layer1"
     showgrid="false"
     fit-margin-top="0"
     fit-margin-left="0"
     fit-margin-right="0"
     fit-margin-bottom="0"
     inkscape:window-width="1920"
     inkscape:window-height="1017"
     inkscape:window-x="-8"
     inkscape:window-y="-8"
     inkscape:window-maximized="1" />
  <metadata
     id="metadata5">
    <rdf:RDF>
      <cc:Work
         rdf:about="">
        <dc:format>image/svg+xml</dc:format>
        <dc:type
           rdf:resource="http://purl.org/dc/dcmitype/StillImage" />
        <dc:title></dc:title>
      </cc:Work>
    </rdf:RDF>
  </metadata>
  <g
     inkscape:label="Layer 1"
     inkscape:groupmode="layer"
     id="layer1"
     transform="translate(-41.051271,-66.0984)">
    <path
       style="opacity:1;vector-effect:none;fill:#000000;fill-opacity:1;fill-rule:nonzero;stroke:none;stroke-width:3.36289001;stroke-linecap:round;stroke-linejoin:round;stroke-miterlimit:4;stroke-dasharray:none;stroke-dashoffset:10.20510101;stroke-opacity:1;paint-order:normal"
       d="m 107.13296,66.101295 c -2.02392,0.08894 -2.48541,2.515317 -3.39235,3.903006 -6.004034,12.059655 -11.931734,24.157425 -17.909434,36.230249 -14.43855,2.12582 -28.91169,4.04085 -43.30608,6.44688 -1.53996,0.47377 -2.03677,2.86735 -0.69643,3.87274 7.33199,7.75856 15.1705,15.02309 22.76643,22.52089 2.65489,2.58119 5.31111,5.16148 7.96651,7.7424 -2.25541,14.3579 -4.98129,28.64538 -7.13984,43.01977 -0.28125,1.87364 1.9872,3.10423 3.52473,2.20834 9.55796,-4.74613 18.93363,-9.86406 28.40817,-14.77811 3.301724,-1.73816 6.601774,-3.47952 9.902124,-5.2203 13.07532,6.80457 26.01818,13.87623 39.23349,20.40419 1.78617,0.16386 3.1678,-1.88535 2.50298,-3.52827 -2.29768,-13.97706 -4.75586,-27.92739 -7.1421,-41.8897 10.30387,-10.33248 20.97556,-20.29728 31.14612,-30.76074 1.07072,-1.53107 -0.19857,-3.75874 -2.01933,-3.82136 -13.85793,-2.25221 -27.8268,-3.95895 -41.65868,-6.25731 -1.24994,-0.10209 -1.24618,-1.83234 -1.93278,-2.64207 -6.13991,-12.100234 -11.92014,-24.393624 -18.21854,-36.413994 -0.47083,-0.634963 -1.2288,-1.07982 -2.03499,-1.036611 z m 0.47617,7.455689 c 5.90893,11.818142 11.56299,23.768065 17.68233,35.478496 0.54171,1.06827 1.62044,1.49098 2.77089,1.47814 12.91133,2.01753 25.87031,3.7408 38.77694,5.76424 -9.44036,9.48301 -19.28377,18.56361 -28.57195,28.19615 -1.42516,1.10462 -0.52462,2.9811 -0.45574,4.44622 1.96181,12.47624 4.25944,24.89715 6.25051,37.3675 -12.0572,-5.98429 -23.80927,-12.68314 -35.93025,-18.583 -1.27936,-0.82952 -2.52054,0.65251 -3.71876,0.99354 -11.418504,5.76488 -22.715164,11.76909 -34.015954,17.7602 2.1003,-13.37558 4.67492,-26.68055 6.65803,-40.07503 0.34446,-1.49753 -1.43777,-2.20213 -2.15548,-3.24224 -9.04324,-9.05223 -18.14074,-18.05696 -27.41703,-26.86812 13.24174,-2.07705 26.584,-3.71973 39.81784,-5.91729 2.00127,-0.39033 2.44939,-2.79394 3.4417,-4.25472 5.63233,-11.025784 11.005514,-22.181724 16.494154,-33.279184 0.12426,0.245031 0.24851,0.490064 0.37277,0.735098 z"
       id="path843"
       inkscape:connector-curvature="0" />
  </g>
</svg>
