<?xml version="1.0" encoding="UTF-8"?>
<!DOCTYPE svg PUBLIC "-//W3C//DTD SVG 1.1//EN" "http://www.w3.org/Graphics/SVG/1.1/DTD/svg11.dtd">
<!-- Creator: CorelDRAW 2020 (64 Bit) -->
<svg xmlns="http://www.w3.org/2000/svg" xml:space="preserve" width="1969px" height="615px" version="1.1" style="shape-rendering:geometricPrecision; text-rendering:geometricPrecision; image-rendering:optimizeQuality; fill-rule:evenodd; clip-rule:evenodd"
viewBox="0 0 83.34 26.01"
 xmlns:xlink="http://www.w3.org/1999/xlink"
 xmlns:xodm="http://www.corel.com/coreldraw/odm/2003">
 <defs>
  <style type="text/css">
   <![CDATA[
    .fil1 {fill:black;fill-rule:nonzero}
    .fil0 {fill:#FFBB00;fill-rule:nonzero}
   ]]>
  </style>
 </defs>
 <g id="Camada_x0020_1">
  <metadata id="CorelCorpID_0Corel-Layer"/>
  <path class="fil0" d="M58.5 7.33c0,-0.13 -0.08,-0.24 -0.19,-0.29l-2.43 -1.07 -0.49 -2.61c-0.02,-0.13 -0.11,-0.22 -0.23,-0.26 -0.13,-0.03 -0.25,0.01 -0.34,0.1l-1.77 1.97 -2.63 -0.34c-0.12,-0.01 -0.25,0.04 -0.32,0.15 -0.07,0.1 -0.07,0.24 -0.01,0.34l1.33 2.3 -1.13 2.4c-0.06,0.11 -0.04,0.24 0.04,0.34 0.08,0.1 0.2,0.14 0.32,0.12l2.6 -0.56 1.93 1.82c0.04,0.04 0.08,0.07 0.13,0.08 0.07,0.02 0.14,0.02 0.21,-0.01 0.11,-0.04 0.2,-0.15 0.21,-0.27l0.27 -2.64 2.33 -1.27c0.11,-0.06 0.18,-0.18 0.17,-0.3z"/>
  <path class="fil0" d="M24.84 7.33c0.01,-0.13 0.08,-0.24 0.2,-0.29l2.42 -1.07 0.49 -2.61c0.03,-0.13 0.12,-0.22 0.24,-0.26 0.12,-0.03 0.25,0.01 0.33,0.1l1.77 1.97 2.63 -0.34c0.13,-0.01 0.25,0.04 0.32,0.15 0.07,0.1 0.07,0.24 0.01,0.34l-1.33 2.3 1.14 2.4c0.05,0.11 0.04,0.24 -0.04,0.34 -0.08,0.1 -0.21,0.14 -0.33,0.12l-2.59 -0.56 -1.93 1.82c-0.04,0.04 -0.09,0.07 -0.14,0.08 -0.06,0.02 -0.13,0.02 -0.2,-0.01 -0.12,-0.04 -0.2,-0.15 -0.21,-0.27l-0.28 -2.64 -2.32 -1.27c-0.12,-0.06 -0.18,-0.18 -0.18,-0.3z"/>
  <path class="fil1" d="M4.04 23.43c-0.79,0 -1.54,-0.11 -2.28,-0.32 -0.73,-0.21 -1.32,-0.49 -1.76,-0.83l0.78 -1.73c0.42,0.32 0.93,0.57 1.52,0.75 0.58,0.19 1.17,0.29 1.75,0.29 0.65,0 1.14,-0.1 1.45,-0.29 0.31,-0.2 0.47,-0.45 0.47,-0.77 0,-0.24 -0.1,-0.44 -0.28,-0.59 -0.19,-0.16 -0.42,-0.28 -0.71,-0.38 -0.29,-0.09 -0.68,-0.2 -1.17,-0.31 -0.75,-0.18 -1.37,-0.36 -1.85,-0.54 -0.49,-0.18 -0.9,-0.47 -1.24,-0.86 -0.35,-0.4 -0.52,-0.93 -0.52,-1.59 0,-0.58 0.15,-1.1 0.47,-1.57 0.31,-0.46 0.78,-0.83 1.41,-1.11 0.62,-0.27 1.39,-0.41 2.3,-0.41 0.63,0 1.25,0.08 1.85,0.23 0.61,0.15 1.14,0.37 1.59,0.65l-0.71 1.74c-0.91,-0.52 -1.83,-0.78 -2.75,-0.78 -0.64,0 -1.11,0.11 -1.42,0.31 -0.31,0.21 -0.46,0.49 -0.46,0.83 0,0.34 0.18,0.59 0.53,0.75 0.36,0.17 0.9,0.33 1.62,0.49 0.76,0.18 1.38,0.36 1.86,0.54 0.48,0.18 0.89,0.46 1.24,0.85 0.34,0.39 0.52,0.91 0.52,1.57 0,0.57 -0.16,1.09 -0.48,1.56 -0.31,0.46 -0.79,0.83 -1.42,1.11 -0.64,0.27 -1.4,0.41 -2.31,0.41z"/>
  <path id="1" class="fil1" d="M17.22 15.64l0 7.62 -2.09 0 0 -0.91c-0.3,0.33 -0.65,0.59 -1.05,0.76 -0.41,0.18 -0.85,0.26 -1.32,0.26 -1,0 -1.79,-0.29 -2.38,-0.86 -0.59,-0.58 -0.88,-1.43 -0.88,-2.57l0 -4.3 2.21 0 0 3.98c0,1.23 0.52,1.84 1.55,1.84 0.53,0 0.95,-0.17 1.27,-0.52 0.32,-0.34 0.48,-0.85 0.48,-1.53l0 -3.77 2.21 0z"/>
  <path id="2" class="fil1" d="M23.66 15.52c0.71,0 1.36,0.17 1.94,0.49 0.58,0.33 1.04,0.79 1.37,1.38 0.33,0.59 0.49,1.27 0.49,2.06 0,0.78 -0.16,1.47 -0.49,2.06 -0.33,0.59 -0.79,1.05 -1.37,1.37 -0.58,0.33 -1.23,0.49 -1.94,0.49 -0.97,0 -1.73,-0.3 -2.29,-0.92l0 3.56 -2.21 0 0 -10.37 2.11 0 0 0.88c0.55,-0.67 1.35,-1 2.39,-1zm-0.38 6.04c0.57,0 1.03,-0.19 1.4,-0.57 0.36,-0.39 0.54,-0.9 0.54,-1.54 0,-0.64 -0.18,-1.16 -0.54,-1.54 -0.37,-0.38 -0.83,-0.57 -1.4,-0.57 -0.56,0 -1.03,0.19 -1.39,0.57 -0.37,0.38 -0.55,0.9 -0.55,1.54 0,0.64 0.18,1.15 0.55,1.54 0.36,0.38 0.83,0.57 1.39,0.57z"/>
  <path id="3" class="fil1" d="M36.28 19.48c0,0.02 -0.01,0.22 -0.04,0.59l-5.77 0c0.11,0.47 0.35,0.85 0.74,1.12 0.39,0.27 0.87,0.41 1.45,0.41 0.39,0 0.74,-0.06 1.05,-0.18 0.31,-0.11 0.59,-0.3 0.86,-0.55l1.17 1.27c-0.71,0.82 -1.76,1.23 -3.14,1.23 -0.86,0 -1.62,-0.16 -2.28,-0.5 -0.66,-0.34 -1.17,-0.8 -1.53,-1.4 -0.36,-0.59 -0.54,-1.27 -0.54,-2.02 0,-0.75 0.18,-1.42 0.53,-2.02 0.35,-0.6 0.84,-1.07 1.46,-1.4 0.62,-0.34 1.31,-0.51 2.08,-0.51 0.74,0 1.42,0.16 2.02,0.48 0.61,0.33 1.08,0.79 1.43,1.39 0.34,0.6 0.51,1.29 0.51,2.09zm-3.95 -2.28c-0.5,0 -0.92,0.14 -1.26,0.42 -0.34,0.28 -0.55,0.67 -0.62,1.16l3.75 0c-0.08,-0.48 -0.28,-0.86 -0.62,-1.15 -0.34,-0.29 -0.76,-0.43 -1.25,-0.43z"/>
  <path id="4" class="fil1" d="M39.75 16.64c0.26,-0.37 0.62,-0.64 1.07,-0.83 0.45,-0.19 0.96,-0.29 1.55,-0.29l0 2.04c-0.25,-0.02 -0.41,-0.02 -0.5,-0.02 -0.63,0 -1.12,0.17 -1.48,0.53 -0.36,0.35 -0.54,0.88 -0.54,1.59l0 3.6 -2.21 0 0 -7.62 2.11 0 0 1z"/>
  <path id="5" class="fil1" d="M51.05 23.43c-0.78,0 -1.54,-0.11 -2.27,-0.32 -0.74,-0.21 -1.32,-0.49 -1.77,-0.83l0.78 -1.73c0.43,0.32 0.93,0.57 1.52,0.75 0.58,0.19 1.17,0.29 1.75,0.29 0.66,0 1.14,-0.1 1.45,-0.29 0.31,-0.2 0.47,-0.45 0.47,-0.77 0,-0.24 -0.1,-0.44 -0.28,-0.59 -0.18,-0.16 -0.42,-0.28 -0.71,-0.38 -0.29,-0.09 -0.68,-0.2 -1.17,-0.31 -0.75,-0.18 -1.37,-0.36 -1.85,-0.54 -0.49,-0.18 -0.9,-0.47 -1.24,-0.86 -0.35,-0.4 -0.52,-0.93 -0.52,-1.59 0,-0.58 0.16,-1.1 0.47,-1.57 0.31,-0.46 0.78,-0.83 1.41,-1.11 0.63,-0.27 1.39,-0.41 2.3,-0.41 0.63,0 1.25,0.08 1.86,0.23 0.6,0.15 1.13,0.37 1.58,0.65l-0.71 1.74c-0.91,-0.52 -1.83,-0.78 -2.74,-0.78 -0.65,0 -1.12,0.11 -1.43,0.31 -0.31,0.21 -0.46,0.49 -0.46,0.83 0,0.34 0.18,0.59 0.53,0.75 0.36,0.17 0.9,0.33 1.62,0.49 0.76,0.18 1.38,0.36 1.86,0.54 0.48,0.18 0.9,0.46 1.24,0.85 0.35,0.39 0.52,0.91 0.52,1.57 0,0.57 -0.16,1.09 -0.48,1.56 -0.31,0.46 -0.79,0.83 -1.42,1.11 -0.63,0.27 -1.4,0.41 -2.31,0.41z"/>
  <path id="6" class="fil1" d="M61.47 22.89c-0.22,0.16 -0.48,0.28 -0.8,0.36 -0.32,0.08 -0.65,0.12 -1,0.12 -0.9,0 -1.61,-0.23 -2.1,-0.69 -0.5,-0.46 -0.75,-1.14 -0.75,-2.04l0 -3.13 -1.17 0 0 -1.7 1.17 0 0 -1.86 2.21 0 0 1.86 1.9 0 0 1.7 -1.9 0 0 3.1c0,0.32 0.09,0.57 0.25,0.74 0.17,0.18 0.4,0.27 0.7,0.27 0.35,0 0.65,-0.1 0.9,-0.29l0.59 1.56z"/>
  <path id="7" class="fil1" d="M65.67 15.52c1.18,0 2.09,0.28 2.72,0.85 0.64,0.56 0.95,1.41 0.95,2.54l0 4.35 -2.06 0 0 -0.95c-0.42,0.71 -1.2,1.06 -2.33,1.06 -0.58,0 -1.09,-0.1 -1.52,-0.29 -0.43,-0.2 -0.76,-0.48 -0.99,-0.83 -0.22,-0.35 -0.34,-0.74 -0.34,-1.19 0,-0.71 0.27,-1.26 0.8,-1.67 0.54,-0.4 1.36,-0.61 2.48,-0.61l1.75 0c0,-0.48 -0.14,-0.85 -0.44,-1.11 -0.29,-0.26 -0.73,-0.39 -1.31,-0.39 -0.41,0 -0.81,0.06 -1.2,0.19 -0.39,0.13 -0.73,0.3 -1,0.52l-0.79 -1.55c0.41,-0.29 0.91,-0.52 1.49,-0.68 0.58,-0.16 1.18,-0.24 1.79,-0.24zm-0.17 6.37c0.38,0 0.72,-0.09 1.01,-0.27 0.29,-0.17 0.5,-0.43 0.62,-0.77l0 -0.78 -1.51 0c-0.91,0 -1.36,0.3 -1.36,0.89 0,0.29 0.11,0.51 0.33,0.68 0.22,0.16 0.53,0.25 0.91,0.25z"/>
  <path id="8" class="fil1" d="M73.33 16.64c0.27,-0.37 0.62,-0.64 1.07,-0.83 0.45,-0.19 0.97,-0.29 1.55,-0.29l0 2.04c-0.24,-0.02 -0.41,-0.02 -0.49,-0.02 -0.63,0 -1.13,0.17 -1.49,0.53 -0.36,0.35 -0.54,0.88 -0.54,1.59l0 3.6 -2.21 0 0 -7.62 2.11 0 0 1z"/>
  <path id="9" class="fil1" d="M79.75 23.37c-0.64,0 -1.26,-0.07 -1.86,-0.23 -0.6,-0.16 -1.09,-0.35 -1.45,-0.59l0.74 -1.59c0.34,0.22 0.75,0.4 1.23,0.54 0.49,0.13 0.96,0.2 1.42,0.2 0.94,0 1.4,-0.23 1.4,-0.69 0,-0.22 -0.12,-0.38 -0.38,-0.47 -0.25,-0.1 -0.65,-0.18 -1.18,-0.24 -0.62,-0.1 -1.13,-0.2 -1.54,-0.33 -0.41,-0.12 -0.76,-0.34 -1.06,-0.65 -0.29,-0.31 -0.44,-0.76 -0.44,-1.33 0,-0.48 0.14,-0.91 0.42,-1.28 0.28,-0.38 0.68,-0.67 1.22,-0.87 0.53,-0.21 1.16,-0.32 1.89,-0.32 0.54,0 1.07,0.06 1.6,0.18 0.54,0.12 0.98,0.28 1.33,0.49l-0.74 1.57c-0.67,-0.38 -1.4,-0.56 -2.19,-0.56 -0.48,0 -0.83,0.06 -1.07,0.19 -0.23,0.14 -0.35,0.31 -0.35,0.51 0,0.24 0.13,0.41 0.38,0.5 0.26,0.09 0.66,0.18 1.22,0.27 0.62,0.1 1.13,0.21 1.53,0.33 0.4,0.12 0.74,0.33 1.04,0.65 0.29,0.31 0.43,0.74 0.43,1.3 0,0.47 -0.14,0.89 -0.42,1.26 -0.28,0.37 -0.7,0.66 -1.24,0.86 -0.54,0.2 -1.19,0.3 -1.93,0.3z"/>
  <path class="fil0" d="M47.32 4.11c-0.05,-0.16 -0.18,-0.27 -0.34,-0.29l-3.4 -0.5 -1.53 -3.08c-0.07,-0.15 -0.21,-0.24 -0.38,-0.24 -0.16,0 -0.31,0.09 -0.38,0.24l-1.52 3.08 -3.41 0.5c-0.16,0.02 -0.29,0.13 -0.34,0.29 -0.05,0.15 -0.01,0.32 0.11,0.43l2.46 2.4 -0.58 3.39c-0.03,0.16 0.04,0.32 0.17,0.42 0.13,0.1 0.3,0.11 0.45,0.03l3.04 -1.6 3.05 1.6c0.06,0.04 0.13,0.05 0.2,0.05 0.08,0 0.17,-0.02 0.25,-0.08 0.13,-0.1 0.19,-0.26 0.16,-0.42l-0.58 -3.39 2.47 -2.4c0.11,-0.11 0.15,-0.28 0.1,-0.43z"/>
 </g>
</svg>
